<svg id="Layer_1" data-name="Layer 1" xmlns="http://www.w3.org/2000/svg" viewBox="0 0 33 32.84"><defs><style>.cls-1{fill:#ea7c31;}.cls-2{fill:#fff;}</style></defs><g id="Desktop"><g id="Home-Desktop"><g id="Group-14"><g id="Group-6"><path id="Rectangle-Copy-34" class="cls-1" d="M16.42,0h.16A16.42,16.42,0,0,1,33,16.43h0A16.42,16.42,0,0,1,16.58,32.84h-.16A16.42,16.42,0,0,1,0,16.43H0A16.42,16.42,0,0,1,16.42,0Z" transform="translate(0 -0.01)"/></g></g></g></g><g id="rss"><path id="Path_1" data-name="Path 1" class="cls-2" d="M22.92,21.81a1,1,0,1,1-2.06,0,9.77,9.77,0,0,0-9.75-9.75,1,1,0,1,1,0-2.06A11.83,11.83,0,0,1,22.92,21.81Zm-11.8-7a1,1,0,1,0,0,2.06,4.94,4.94,0,0,1,4.94,4.93,1,1,0,0,0,2.06,0h0A7,7,0,0,0,11.12,14.83Zm.81,4.63A1.52,1.52,0,1,0,13,19.9,1.53,1.53,0,0,0,11.93,19.46Z" transform="translate(0 -0.01)"/></g></svg>