<?xml version="1.0" encoding="UTF-8"?>
<svg width="33px" height="33px" viewBox="0 0 33 33" version="1.1" xmlns="http://www.w3.org/2000/svg" xmlns:xlink="http://www.w3.org/1999/xlink">
    <!-- Generator: Sketch 55.2 (78181) - https://sketchapp.com -->
    <title>Group 8</title>
    <desc>Created with Sketch.</desc>
    <g id="Desktop" stroke="none" stroke-width="1" fill="none" fill-rule="evenodd">
        <g id="Home-Desktop" transform="translate(-1089.000000, -6383.000000)">
            <g id="Group-14" transform="translate(0.000000, 6295.000000)">
                <g id="Group-8" transform="translate(1089.000000, 88.000000)">
                    <rect id="Rectangle-Copy-4" fill="#00C100" x="0" y="0" width="33" height="32.8480565" rx="16.4240283"></rect>
                    <g id="line-(2)" transform="translate(8.000000, 8.000000)" fill-rule="nonzero">
                        <g id="Group">
                            <path d="M16.9120479,8.04837025 C16.9510359,7.83129747 16.9703263,7.64865506 16.9791826,7.50539241 C16.9938413,7.26895253 16.9771467,6.91792405 16.9711916,6.80801582 C16.7651557,3.02024367 13.0471437,0.00247468354 8.49073653,0.00247468354 C3.80209581,0.00247468354 0.00127245509,3.19788291 0.00127245509,7.13962342 C0.00127245509,10.7626677 3.21233832,13.7550981 7.3724012,14.2153892 C7.62673952,14.2435253 7.81012575,14.4862057 7.78192814,14.7548165 L7.6048024,16.4398608 C7.56459281,16.8223608 7.93879641,17.1006551 8.26673353,16.9333449 C11.7814581,15.1404905 13.8831467,13.2960443 15.1381946,11.6980981 C15.3665749,11.4073228 16.1112665,10.3045285 16.2630958,10.0148829 C16.5853832,9.39997785 16.8075539,8.73966772 16.9120479,8.04837025 Z" id="Path" fill="#FFFFFF"></path>
                            <path d="M3.82260778,8.58543038 L3.82260778,5.57912025 C3.82260778,5.32562658 3.62817665,5.12012025 3.38834431,5.12012025 L3.38834431,5.12012025 C3.14851198,5.12012025 2.95408084,5.32562658 2.95408084,5.57912025 L2.95408084,9.04443038 C2.95408084,9.29792405 3.14851198,9.50343038 3.38834431,9.50343038 L5.12534731,9.50343038 C5.36517964,9.50343038 5.55961078,9.29792405 5.55961078,9.04443038 L5.55961078,9.04443038 C5.55961078,8.79093671 5.36517964,8.58543038 5.12534731,8.58543038 L3.82260778,8.58543038 Z" id="Path" fill="#00C100"></path>
                            <path d="M6.50127844,9.50343038 L6.31142814,9.50343038 C6.12402096,9.50343038 5.97208982,9.34284494 5.97208982,9.14476266 L5.97208982,5.47878797 C5.97208982,5.2807057 6.12402096,5.12012025 6.31142814,5.12012025 L6.50127844,5.12012025 C6.68868563,5.12012025 6.84061677,5.2807057 6.84061677,5.47878797 L6.84061677,9.14476266 C6.84061677,9.34284494 6.68868563,9.50343038 6.50127844,9.50343038 Z" id="Path" fill="#00C100"></path>
                            <path d="M10.0105569,5.57912025 L10.0105569,7.69610443 C10.0105569,7.69610443 8.2763024,5.30518354 8.24983533,5.27376582 C8.16697305,5.17547785 8.04486826,5.11500949 7.90932635,5.12044304 C7.67310778,5.12991139 7.49196108,5.34811392 7.49196108,5.59794937 L7.49196108,9.04437658 C7.49196108,9.29787025 7.68639222,9.50339423 7.92622455,9.50339423 L7.92622455,9.50339423 C8.16605689,9.50339423 8.36048802,9.29787025 8.36048802,9.04437658 L8.36048802,6.94025 C8.36048802,6.94025 10.1211078,9.35199051 10.1469641,9.37792089 C10.2237695,9.45474367 10.3269401,9.50230063 10.4407994,9.50339423 C10.6819551,9.50568987 10.8790838,9.28022468 10.8790838,9.02533228 L10.8790838,5.57912025 C10.8790838,5.32562658 10.6846527,5.12010505 10.4448204,5.12010505 L10.4448204,5.12010505 C10.204988,5.12017405 10.0105569,5.32562658 10.0105569,5.57912025 Z" id="Path" fill="#00C100"></path>
                            <path d="M14.1359072,5.57912025 L14.1359072,5.57912025 C14.1359072,5.32562658 13.941476,5.12012025 13.7016437,5.12012025 L11.9646407,5.12012025 C11.7248084,5.12012025 11.5303772,5.32562658 11.5303772,5.57912025 L11.5303772,9.04443038 C11.5303772,9.29792405 11.7248084,9.50343038 11.9646407,9.50343038 L13.7016437,9.50343038 C13.941476,9.50343038 14.1359072,9.29792405 14.1359072,9.04443038 L14.1359072,9.04443038 C14.1359072,8.79093671 13.941476,8.58543038 13.7016437,8.58543038 L12.3989042,8.58543038 L12.3989042,7.77072152 L13.7016437,7.77072152 C13.941476,7.77072152 14.1359072,7.56521519 14.1359072,7.31172152 L14.1359072,7.31172152 C14.1359072,7.05822785 13.941476,6.85272152 13.7016437,6.85272152 L12.3989042,6.85272152 L12.3989042,6.03801266 L13.7016437,6.03801266 C13.941476,6.03812025 14.1359072,5.83261392 14.1359072,5.57912025 Z" id="Path" fill="#00C100"></path>
                        </g>
                    </g>
                </g>
            </g>
        </g>
    </g>
</svg>