<?xml version="1.0" encoding="utf-8"?>
<!-- Generator: Adobe Illustrator 26.5.0, SVG Export Plug-In . SVG Version: 6.00 Build 0)  -->
<svg version="1.1" id="Layer_1" xmlns="http://www.w3.org/2000/svg" xmlns:xlink="http://www.w3.org/1999/xlink" x="0px" y="0px"
	 viewBox="0 0 35 35" style="enable-background:new 0 0 35 35;" xml:space="preserve">
<style type="text/css">
	.st0{fill:#FFFFFF;}
	.st1{fill:#EC1655;}
	.st2{fill:#0CBAC6;}
</style>
<g>
	<circle cx="17.5" cy="17.5" r="17.5"/>
	<g>
		<g>
			<path class="st0" d="M14.29,21.91c0.01,0.01,0.03,0.02,0.04,0.04c0.13,0.09,0.22,0.22,0.34,0.31c0.38,0.3,0.8,0.46,1.28,0.49
				c1.15,0.07,2.14-0.79,2.27-1.92c0.01-0.06,0-0.11,0-0.17c0-3.41,0-6.82,0-10.23c0-0.23,0-0.23,0.23-0.23c0.52,0,1.04,0,1.56,0
				c0.05,0,0.1-0.01,0.14,0.02c0,0,0.01,0,0.01,0.01c0.02,0.03,0.03,0.06,0.04,0.09c0.2,0.92,0.68,1.65,1.44,2.21
				c0.05,0.03,0.09,0.08,0.13,0.11c0.03,0.03,0.07,0.06,0.1,0.08c0.12,0.07,0.21,0.18,0.32,0.27c0.42,0.35,0.89,0.59,1.42,0.73
				c0.05,0.01,0.1,0.01,0.13,0.06c0,0,0.01,0.01,0.01,0.01c0.03,0.03,0.03,0.07,0.03,0.11c0,0.6,0,1.2,0,1.8
				c0,0.14-0.02,0.14-0.16,0.14c-0.44,0-0.87-0.06-1.3-0.16c-0.74-0.17-1.42-0.47-2.05-0.88c-0.03-0.02-0.07-0.07-0.1-0.05
				c-0.04,0.02-0.02,0.08-0.02,0.12c0,1.69,0.01,3.39,0,5.08c-0.01,1.18-0.38,2.24-1.16,3.15c-0.82,0.96-1.87,1.51-3.12,1.67
				c-0.97,0.12-1.89-0.06-2.76-0.49c-0.14-0.07-0.28-0.15-0.4-0.25c-0.04-0.04-0.08-0.07-0.12-0.11c-0.3-0.25-0.51-0.57-0.7-0.9
				c-0.3-0.51-0.5-1.05-0.59-1.64c-0.05-0.33-0.08-0.67-0.06-1c0.06-1.08,0.42-2.05,1.12-2.89c0.59-0.7,1.32-1.19,2.18-1.49
				c0.36-0.12,0.73-0.2,1.11-0.23c0.07,0,0.14-0.02,0.21-0.02c0.03,0,0.07,0,0.1,0.02c0,0,0.01,0.01,0.01,0.01
				c0.02,0.03,0.02,0.07,0.02,0.11c0,0.61,0,1.22,0,1.83c0,0.02,0,0.04,0,0.06c0,0.06-0.03,0.08-0.09,0.07
				c-0.17-0.05-0.34-0.07-0.51-0.08c-0.27-0.01-0.53,0.02-0.78,0.12c-0.84,0.31-1.35,0.91-1.45,1.8c-0.1,0.87,0.24,1.57,0.97,2.07
				C14.17,21.82,14.23,21.86,14.29,21.91z"/>
			<path class="st1" d="M12.71,24.04c0.03-0.01,0.05,0.02,0.07,0.03c0.55,0.33,1.13,0.55,1.76,0.65c0.32,0.05,0.64,0.07,0.96,0.06
				c1.07-0.06,2.03-0.41,2.86-1.1c0.8-0.66,1.33-1.5,1.6-2.5c0.08-0.32,0.13-0.64,0.15-0.97c0.01-0.19,0.01-0.38,0.01-0.56
				c0-1.61,0-3.23,0-4.84c0-0.04,0-0.07,0-0.11c0.04-0.01,0.06,0.02,0.08,0.04c0.57,0.39,1.2,0.68,1.87,0.87
				c0.37,0.1,0.74,0.17,1.13,0.2c0.16,0.01,0.32,0.01,0.48,0.02c0.07,0.01,0.07,0,0.07-0.07c0-0.08,0-0.15,0-0.23
				c0-0.55,0-1.09,0-1.64c0-0.03,0-0.07,0-0.1c0.14,0.02,0.29,0.05,0.43,0.06c0.09,0.01,0.18,0.02,0.27,0.01
				c0.04,0,0.06,0.01,0.06,0.06c0,0.02,0,0.04,0,0.06c0,0.79,0,1.58,0,2.37c0,0.02,0,0.03,0,0.05c0,0.07,0,0.07-0.07,0.07
				c-0.25,0-0.49-0.02-0.74-0.05c-0.5-0.07-0.99-0.19-1.46-0.37c-0.45-0.18-0.87-0.4-1.27-0.67c-0.02-0.02-0.05-0.03-0.09-0.06
				c0,0.05,0,0.08,0,0.11c0,1.72,0,3.45,0,5.17c0,0.92-0.24,1.77-0.73,2.55c-0.59,0.94-1.41,1.6-2.46,1.98
				c-0.63,0.23-1.29,0.32-1.96,0.27c-1.14-0.08-2.12-0.52-2.96-1.29C12.75,24.08,12.73,24.06,12.71,24.04z"/>
			<path class="st2" d="M20.15,10.22c-0.03,0-0.07,0-0.1,0c-0.56,0-1.11,0-1.67,0c-0.13,0-0.13,0-0.13,0.12c0,3.39,0,6.79,0,10.18
				c0,0.24-0.02,0.47-0.09,0.69c-0.26,0.79-0.79,1.32-1.61,1.5c-0.87,0.2-1.62-0.07-2.21-0.74c-0.01-0.01-0.02-0.03-0.02-0.04
				c0.17,0.07,0.34,0.13,0.52,0.17c0.57,0.11,1.11,0.03,1.6-0.28c0.57-0.35,0.91-0.87,1.03-1.52c0.02-0.12,0.03-0.25,0.03-0.38
				c0-3.4,0-6.8,0-10.2c0-0.16-0.02-0.14,0.14-0.14c0.78,0,1.57,0,2.35,0c0.02,0,0.04,0,0.06,0c0.08,0,0.08,0,0.08,0.08
				C20.12,9.86,20.12,10.04,20.15,10.22z"/>
			<path class="st2" d="M15.96,15.8c-0.48,0.02-0.95,0.09-1.4,0.24c-0.66,0.22-1.24,0.56-1.75,1.03c-0.67,0.62-1.13,1.36-1.37,2.24
				c-0.09,0.31-0.14,0.63-0.16,0.95c-0.01,0.19-0.02,0.39-0.01,0.58c0.03,0.54,0.14,1.06,0.34,1.56c0.23,0.56,0.55,1.06,0.97,1.5
				c0.01,0.01,0.01,0.02,0.02,0.03c-0.09-0.04-0.17-0.11-0.25-0.17c-0.78-0.62-1.33-1.39-1.63-2.34c-0.1-0.33-0.17-0.67-0.2-1.01
				c-0.02-0.25-0.03-0.5-0.01-0.75c0.04-0.57,0.17-1.12,0.41-1.65c0.25-0.55,0.59-1.04,1.02-1.46c0.5-0.49,1.08-0.86,1.74-1.09
				c0.41-0.15,0.84-0.24,1.28-0.27c0.32-0.02,0.63-0.02,0.95,0.02c0.04,0.01,0.07,0.01,0.07,0.06
				C15.96,15.45,15.96,15.62,15.96,15.8z"/>
			<path class="st1" d="M14.29,21.91c-0.19-0.09-0.36-0.21-0.51-0.36c-0.38-0.37-0.61-0.81-0.67-1.34c-0.12-1.1,0.57-2.05,1.54-2.35
				c0.41-0.13,0.82-0.13,1.24-0.02c0.02,0.01,0.05,0.02,0.07,0.01c0.01-0.03,0.01-0.07,0.01-0.1c0-0.62,0-1.23,0-1.85
				c0-0.03,0-0.07,0.01-0.1c0.24-0.02,0.47,0.01,0.71,0.03c0.04,0,0.05,0.02,0.05,0.05c0,0.02,0,0.04,0,0.06c0,0.82,0,1.63,0,2.45
				c0,0.03,0.01,0.06-0.01,0.09c-0.11-0.02-0.21-0.05-0.32-0.07c-0.63-0.09-1.2,0.06-1.7,0.45c-0.44,0.35-0.71,0.8-0.8,1.35
				c-0.1,0.58,0.02,1.13,0.36,1.62C14.26,21.87,14.27,21.89,14.29,21.91z"/>
			<path class="st1" d="M21.78,12.64c-0.24-0.14-0.45-0.32-0.64-0.51c-0.51-0.53-0.84-1.16-0.98-1.88c0-0.01,0-0.01,0-0.02
				c0.22-0.01,0.44,0,0.67-0.01c0.04,0,0.06,0.01,0.05,0.05c0,0.02,0,0.03,0,0.05c-0.01,0.62,0.17,1.19,0.48,1.72
				c0.11,0.19,0.24,0.37,0.38,0.54C21.75,12.6,21.77,12.61,21.78,12.64z"/>
			<path class="st2" d="M23.75,13.78c-0.63-0.14-1.19-0.42-1.67-0.85c-0.07-0.06-0.14-0.12-0.2-0.2c0.02,0,0.04,0.01,0.06,0.02
				c0.38,0.22,0.79,0.36,1.23,0.43c0.17,0.03,0.34,0.05,0.51,0.04c0.07,0,0.07,0,0.07,0.07C23.75,13.46,23.75,13.62,23.75,13.78z"/>
		</g>
	</g>
</g>
</svg>
