<?xml version="1.0" encoding="UTF-8"?>
<svg width="33px" height="33px" viewBox="0 0 33 33" version="1.1" xmlns="http://www.w3.org/2000/svg" xmlns:xlink="http://www.w3.org/1999/xlink">
    <!-- Generator: Sketch 55.2 (78181) - https://sketchapp.com -->
    <title>Group 10</title>
    <desc>Created with Sketch.</desc>
    <g id="Desktop" stroke="none" stroke-width="1" fill="none" fill-rule="evenodd">
        <g id="Home-Desktop" transform="translate(-1013.000000, -6383.000000)">
            <g id="Group-14" transform="translate(0.000000, 6295.000000)">
                <g id="Group-10" transform="translate(1013.000000, 88.000000)">
                    <rect id="Rectangle" fill="#0E6CF0" x="0" y="1.7408297e-13" width="33" height="32.8480565" rx="16.4240283"></rect>
                    <g id="facebook-logo" transform="translate(13.000000, 11.000000)" fill="#FFFFFF" fill-rule="nonzero">
                        <path d="M6.73640055,-0.131778817 L5.05741885,-0.134275618 C3.17114049,-0.134275618 1.95214455,1.02486423 1.95214455,2.81894057 L1.95214455,4.18057098 L0.264003541,4.18057098 C0.118128115,4.18057098 0,4.29018055 0,4.42538232 L0,6.39822961 C0,6.53343138 0.118262811,6.6429161 0.264003541,6.6429161 L1.95214455,6.6429161 L1.95214455,11.6210379 C1.95214455,11.7562397 2.07027266,11.8657244 2.21614809,11.8657244 L4.41869191,11.8657244 C4.56456734,11.8657244 4.68269545,11.7561148 4.68269545,11.6210379 L4.68269545,6.6429161 L6.65652601,6.6429161 C6.80240143,6.6429161 6.92052955,6.53343138 6.92052955,6.39822961 L6.92133772,4.42538232 C6.92133772,4.36046549 6.89345571,4.29829515 6.8440224,4.25235401 C6.79458908,4.20641287 6.72724124,4.18057098 6.65719948,4.18057098 L4.68269545,4.18057098 L4.68269545,3.02629989 C4.68269545,2.47151072 4.82533818,2.18987157 5.6050915,2.18987157 L6.73613116,2.18949705 C6.88187189,2.18949705 7,2.07988749 7,1.94481055 L7,0.112907678 C7,-0.0220444146 6.88200658,-0.131529137 6.73640055,-0.131778817 Z" id="Path"></path>
                    </g>
                </g>
            </g>
        </g>
    </g>
</svg>