<?xml version="1.0" encoding="UTF-8"?>
<svg width="32px" height="33px" viewBox="0 0 32 33" version="1.1" xmlns="http://www.w3.org/2000/svg" xmlns:xlink="http://www.w3.org/1999/xlink">
    <!-- Generator: Sketch 55.2 (78181) - https://sketchapp.com -->
    <title>Group 7</title>
    <desc>Created with Sketch.</desc>
    <g id="Desktop" stroke="none" stroke-width="1" fill="none" fill-rule="evenodd">
        <g id="Home-Desktop" transform="translate(-1127.000000, -6383.000000)">
            <g id="Group-14" transform="translate(0.000000, 6295.000000)">
                <g id="Group-7" transform="translate(1127.000000, 88.000000)">
                    <rect id="Rectangle-Copy-33" fill="#FF0000" x="0" y="1.7408297e-13" width="32" height="32.8480565" rx="16"></rect>
                    <g id="youtube" transform="translate(9.000000, 11.000000)" fill="#FFFFFF" fill-rule="nonzero">
                        <path d="M14.4153387,0.590366151 C13.8738871,-0.0629044249 12.8742097,-0.329379101 10.9650484,-0.329379101 L4.03480645,-0.329379101 C2.08195161,-0.329379101 1.06533871,-0.0457156787 0.525919355,0.649790103 C0,1.32791069 0,2.32706796 0,3.70992714 L0,6.34564948 C0,9.02468746 0.624,10.3849066 4.03480645,10.3849066 L10.9650968,10.3849066 C12.6207097,10.3849066 13.538129,10.1497646 14.1316452,9.57325402 C14.7403065,8.98205937 15,8.0167885 15,6.34564948 L15,3.70992714 C15,2.2515848 14.9593065,1.24653426 14.4153387,0.590366151 Z M9.63004839,5.39167407 L6.48304839,7.06099599 C6.41269355,7.09832012 6.33575806,7.11683486 6.25891935,7.11683486 C6.17191935,7.11683486 6.0851129,7.09306528 6.00822581,7.04582078 C5.86345161,6.95678307 5.77504839,6.79751706 5.77504839,6.62572782 L5.77504839,3.29779012 C5.77504839,3.12629554 5.86320968,2.96717686 6.00769355,2.87809005 C6.15222581,2.78900323 6.33198387,2.7829135 6.48193548,2.86198174 L9.62893548,4.52054841 C9.78904839,4.6049206 9.88959677,4.77268276 9.88983899,4.95571835 C9.89003226,5.13890128 9.78991935,5.30690899 9.63004839,5.39167407 Z" id="XMLID_823_"></path>
                    </g>
                </g>
            </g>
        </g>
    </g>
</svg>