<?xml version="1.0" encoding="utf-8"?>
<!-- Generator: Adobe Illustrator 26.5.0, SVG Export Plug-In . SVG Version: 6.00 Build 0)  -->
<svg version="1.1" id="Layer_1" xmlns="http://www.w3.org/2000/svg" xmlns:xlink="http://www.w3.org/1999/xlink" x="0px" y="0px"
	 viewBox="0 0 33 33" style="enable-background:new 0 0 33 33;" xml:space="preserve">
<style type="text/css">
	.st0{fill-rule:evenodd;clip-rule:evenodd;}
	.st1{fill:#FFFFFF;}
</style>
<g id="Desktop">
	<g id="Home-Desktop" transform="translate(-1051.000000, -6383.000000)">
		<g id="Group-14" transform="translate(0.000000, 6295.000000)">
			<g id="Group-9" transform="translate(1051.000000, 88.000000)">
				<path id="Rectangle-Copy-3" class="st0" d="M16.4,0.1h0.2C25.7,0.1,33,7.4,33,16.5l0,0c0,9.1-7.4,16.4-16.4,16.4h-0.2
					C7.4,32.9,0,25.6,0,16.5l0,0C0,7.4,7.4,0.1,16.4,0.1z"/>
				<path class="st1" d="M17.6,15.5l4.6-5.4h-1.1l-4,4.6L14,10.1h-3.7l4.8,7l-4.8,5.6h1.1l4.2-4.9l3.4,4.9h3.7L17.6,15.5L17.6,15.5z
					 M16.1,17.2l-0.5-0.7L11.8,11h1.7l3.1,4.5l0.5,0.7l4.1,5.8h-1.7L16.1,17.2L16.1,17.2z"/>
			</g>
		</g>
	</g>
</g>
</svg>
