<?xml version="1.0" encoding="UTF-8"?>
<svg width="33px" height="33px" viewBox="0 0 33 33" version="1.1" xmlns="http://www.w3.org/2000/svg" xmlns:xlink="http://www.w3.org/1999/xlink">
    <!-- Generator: Sketch 55.2 (78181) - https://sketchapp.com -->
    <title>Group 6</title>
    <desc>Created with Sketch.</desc>
    <defs>
        <linearGradient x1="50.000002%" y1="100.000004%" x2="50.000002%" y2="1.11022302e-14%" id="linearGradient-1">
            <stop stop-color="#FFD600" offset="0%"></stop>
            <stop stop-color="#FF0095" offset="52.71%"></stop>
            <stop stop-color="#F2069C" offset="58.02%"></stop>
            <stop stop-color="#CF14B0" offset="67.91%"></stop>
            <stop stop-color="#962CCF" offset="81.3%"></stop>
            <stop stop-color="#494DFA" offset="97.53%"></stop>
            <stop stop-color="#3F51FF" offset="99.51%"></stop>
        </linearGradient>
    </defs>
    <g id="Desktop" stroke="none" stroke-width="1" fill="none" fill-rule="evenodd">
        <g id="Home-Desktop" transform="translate(-1164.000000, -6383.000000)" fill-rule="nonzero">
            <g id="Group-14" transform="translate(0.000000, 6295.000000)">
                <g id="Group-6" transform="translate(1164.000000, 88.000000)">
                    <rect id="Rectangle-Copy-34" fill="url(#linearGradient-1)" x="0" y="1.7408297e-13" width="33" height="32.8480565" rx="16.4240283"></rect>
                    <g id="instagram-logo" transform="translate(9.000000, 9.000000)" fill="#FFFFFF">
                        <path d="M10.8005294,0 L4.11652941,0 C1.84667647,0 0,1.84676471 0,4.11661765 L0,10.8006176 C0,13.0705588 1.84667647,14.9172353 4.11652941,14.9172353 L10.8005294,14.9172353 C13.0705588,14.9172353 14.9172353,13.0704706 14.9172353,10.8006176 L14.9172353,4.11661765 C14.9172353,1.84676471 13.0705588,0 10.8005294,0 Z M13.5937941,10.8006176 C13.5937941,12.3407647 12.3407647,13.5937059 10.8006176,13.5937059 L4.11652941,13.5937059 C2.57647059,13.5937059 1.32352941,12.3407647 1.32352941,10.8006176 L1.32352941,4.11661765 C1.32352941,2.57655882 2.57647059,1.32352941 4.11652941,1.32352941 L10.8005294,1.32352941 C12.3406765,1.32352941 13.5937941,2.57655882 13.5937941,4.11661765 L13.5937941,10.8006176 L13.5937941,10.8006176 Z" id="Shape"></path>
                        <path d="M7.45861765,3.615 C5.33911765,3.615 3.61482353,5.33929412 3.61482353,7.45879412 C3.61482353,9.57820588 5.33911765,11.3024118 7.45861765,11.3024118 C9.57811765,11.3024118 11.3024118,9.57820588 11.3024118,7.45879412 C11.3024118,5.33929412 9.57811765,3.615 7.45861765,3.615 Z M7.45861765,9.97879412 C6.069,9.97879412 4.93835294,8.84832353 4.93835294,7.45870588 C4.93835294,6.069 6.06891176,4.93844118 7.45861765,4.93844118 C8.84832353,4.93844118 9.97888235,6.069 9.97888235,7.45870588 C9.97888235,8.84832353 8.84823529,9.97879412 7.45861765,9.97879412 Z" id="Shape"></path>
                        <path d="M11.4636176,2.49273529 C11.2086176,2.49273529 10.9581176,2.59597059 10.7780294,2.77685294 C10.5970588,2.95685294 10.4930294,3.20744118 10.4930294,3.46332353 C10.4930294,3.71841176 10.5971471,3.96891176 10.7780294,4.14979412 C10.9580294,4.32979412 11.2086176,4.43391176 11.4636176,4.43391176 C11.7195,4.43391176 11.9692059,4.32979412 12.1500882,4.14979412 C12.3309706,3.96891176 12.4342059,3.71832353 12.4342059,3.46332353 C12.4342059,3.20744118 12.3309706,2.95685294 12.1500882,2.77685294 C11.9700882,2.59597059 11.7195,2.49273529 11.4636176,2.49273529 Z" id="Path"></path>
                    </g>
                </g>
            </g>
        </g>
    </g>
</svg>