<?xml version="1.0" encoding="utf-8"?>
<!-- Generator: Adobe Illustrator 24.2.3, SVG Export Plug-In . SVG Version: 6.00 Build 0)  -->
<svg version="1.1" id="Layer_1" xmlns="http://www.w3.org/2000/svg" xmlns:xlink="http://www.w3.org/1999/xlink" x="0px" y="0px"
	 viewBox="0 0 176 59" style="enable-background:new 0 0 176 59;" xml:space="preserve">
<style type="text/css">
	.st0{fill:#EA3516;}
	.st1{enable-background:new    ;}
	.st2{fill:#FFFFFF;}
</style>
<g id="Group_883" transform="translate(139.895 29.74)">
	<path id="Path_37" class="st0" d="M15.86,11.19c0.02,0.04,0.03,0.08,0.04,0.13c0,0.04-0.01,0.07-0.03,0.1
		c-0.02,0.03-0.04,0.06-0.07,0.08c-0.02,0.02-0.05,0.05-0.07,0.07c0.05,0.04,0.11,0.06,0.17,0.08c0.06,0.02,0.11,0.05,0.14,0.11
		c0.02,0.04,0.03,0.08,0.04,0.12c0.01,0.06,0.02,0.12,0.03,0.18l0.02,0.19c0.01,0.05,0.02,0.11,0.05,0.16
		c-0.01,0.05-0.03,0.09-0.06,0.13c-0.03,0.04-0.05,0.08-0.06,0.12c0,0.08,0.02,0.15,0.06,0.22c0.03,0.08,0.06,0.15,0.09,0.21
		c0,0.04-0.02,0.08-0.05,0.11c-0.02,0.04-0.04,0.08-0.06,0.12c0,0.04,0.01,0.07,0.02,0.11c0.01,0.04,0.04,0.08,0.07,0.11
		c0,0.05-0.02,0.1-0.03,0.15c-0.02,0.04-0.02,0.08-0.03,0.12c0.06,0.02,0.1,0.06,0.12,0.12c0.02,0.06,0.03,0.13,0.02,0.19
		c-0.01,0.08-0.02,0.16-0.03,0.24c-0.02,0.08-0.03,0.17-0.04,0.26c-0.01,0.08-0.01,0.17,0,0.25c0.01,0.08,0.03,0.15,0.08,0.22
		c-0.05,0.03-0.08,0.08-0.1,0.14c-0.01,0.04,0,0.09,0.01,0.13c0.01,0.04,0.03,0.08,0.05,0.12c0.02,0.04,0.02,0.08,0.02,0.11
		c-0.01,0.05-0.04,0.09-0.08,0.12c-0.07,0.06-0.15,0.1-0.24,0.14c0.01,0.01,0.01,0.01,0.02,0.02l0.04,0.01
		c0.02,0,0.04,0.01,0.05,0.02c0.02,0.02,0.04,0.04,0.05,0.06l0.2,0.36c-0.01,0.02-0.03,0.04-0.05,0.06
		c-0.02,0.02-0.05,0.04-0.07,0.06c-0.02,0.02-0.06,0.05-0.09,0.07l-0.02,0.03c-0.01,0.02-0.01,0.04-0.01,0.06
		c0.03,0.02,0.06,0.03,0.1,0.04c0.04,0.01,0.08,0.02,0.12,0.02c-0.05,0.05-0.09,0.11-0.13,0.15c-0.04,0.05-0.07,0.11-0.11,0.16
		c0.03,0.01,0.06,0.03,0.08,0.05c0.02,0.03,0.04,0.05,0.07,0.07c0.02,0.14,0.04,0.31,0.06,0.48c0.01,0.2-0.01,0.41-0.05,0.6
		c0.06,0.04,0.11,0.11,0.13,0.18c0.03,0.08,0.04,0.16,0.04,0.25c0,0.09,0,0.18-0.02,0.27l-0.04,0.24c0.02,0.01,0.04,0.03,0.05,0.05
		c0.01,0.02,0.03,0.04,0.05,0.05c0,0.1,0,0.2,0,0.3c0,0.1,0,0.19,0.01,0.29c0.01,0.09,0.02,0.17,0.05,0.26
		c0.02,0.08,0.07,0.14,0.12,0.2c0.01,0.09,0.02,0.18,0.02,0.26l-0.01,0.32c-0.01,0.1-0.01,0.2,0,0.3c0,0.07,0.02,0.14,0.05,0.2
		c-0.03,0.03-0.05,0.06-0.07,0.1c-0.02,0.05-0.03,0.09-0.04,0.14l0.07,0.11c0.03,0.03,0.04,0.08,0.04,0.12
		c-0.07,0.04-0.15,0.09-0.21,0.14c-0.05,0.03-0.09,0.08-0.1,0.13c0.05,0.01,0.09,0.01,0.14,0c0.06-0.01,0.13-0.02,0.19-0.02
		c0,0.05-0.02,0.11-0.06,0.15c-0.04,0.05-0.08,0.11-0.1,0.17c0.05,0.01,0.09,0.01,0.14,0.01c0.05,0,0.1,0.03,0.12,0.08
		c0.02,0.03,0.02,0.07,0.02,0.11c0,0.05,0,0.09,0.01,0.15c0.01,0.05,0,0.11,0,0.16c0,0.05,0,0.09,0.01,0.14
		c0.02,0.05,0.05,0.09,0.09,0.12c0.05,0.03,0.08,0.09,0.08,0.15C17,23.34,17,23.39,17,23.45c0,0.06-0.01,0.13-0.01,0.2l-0.01,0.2
		c0,0.06,0,0.11,0.01,0.17c-0.05,0.07-0.12,0.15-0.2,0.24c-0.08,0.09-0.15,0.16-0.22,0.23v0.02c0.01,0.01,0.03,0.02,0.07,0.02
		c0.05-0.04,0.11-0.07,0.17-0.1c0.07-0.02,0.14-0.05,0.21-0.08s0.16-0.05,0.25-0.08c0.09-0.03,0.18-0.07,0.27-0.12
		c0,0.09,0.01,0.17,0.02,0.26c0.02,0.1,0.03,0.19,0.04,0.27c0.01,0.08,0.01,0.16,0,0.24c-0.01,0.06-0.04,0.12-0.1,0.15
		c-0.02,0.01-0.05,0.02-0.07,0.02c-0.02,0-0.04-0.01-0.06-0.01c-0.02-0.01-0.03-0.01-0.05-0.01c-0.03,0-0.05,0.01-0.07,0.02
		c-0.04,0.02-0.07,0.06-0.1,0.09c-0.04,0.05-0.07,0.1-0.1,0.16c-0.03,0.06-0.06,0.12-0.08,0.19c-0.02,0.06-0.04,0.12-0.05,0.18
		c-0.04,0.03-0.08,0.08-0.13,0.13s-0.11,0.11-0.15,0.16c0.01-0.06,0-0.11-0.02-0.17c-0.02-0.05-0.03-0.11-0.04-0.16
		c-0.06,0.01-0.13,0.02-0.21,0.03c-0.08,0.01-0.17,0.02-0.25,0.02c-0.01-0.05-0.04-0.09-0.07-0.12c-0.02-0.02-0.06-0.03-0.09-0.04
		c-0.04,0-0.07,0.01-0.11,0.03c-0.04,0.02-0.08,0.04-0.11,0.06l0.06-0.17c-0.05,0-0.09,0-0.14,0c-0.05,0-0.1,0-0.15-0.01
		c0.01-0.06,0.01-0.13,0.01-0.21c0.01-0.06,0-0.13-0.03-0.19l0.24-0.13c0-0.01,0-0.02,0-0.02h-0.01c-0.01,0-0.02-0.01-0.03-0.02
		c-0.02-0.02-0.03-0.04-0.04-0.06c-0.01-0.02-0.02-0.04-0.01-0.06c0.01-0.02,0.02-0.03,0.04-0.04l0.05-0.05
		c0.02-0.02,0.04-0.05,0.05-0.08c-0.05,0-0.1,0-0.15-0.01c-0.05-0.01-0.1-0.02-0.15-0.03c-0.05-0.01-0.09-0.03-0.13-0.05
		c-0.03-0.02-0.06-0.04-0.08-0.07c-0.01-0.03-0.02-0.06-0.02-0.08c0-0.04,0-0.07,0.01-0.11c0.01-0.04,0.01-0.07,0.02-0.11
		c0.01-0.03,0.01-0.07,0-0.1c-0.02-0.09-0.04-0.18-0.07-0.28c-0.03-0.1-0.06-0.2-0.09-0.31c-0.03-0.11-0.07-0.21-0.1-0.31
		c-0.04-0.1-0.06-0.2-0.09-0.28c0.04-0.06,0.06-0.12,0.07-0.18c0.02-0.08,0.03-0.17,0.03-0.26c0-0.09-0.01-0.18-0.04-0.27
		c-0.03-0.09-0.08-0.17-0.14-0.24c0.05-0.02,0.1-0.04,0.15-0.06c0.06-0.03,0.11-0.08,0.15-0.14c-0.09-0.04-0.18-0.07-0.26-0.11
		c-0.07-0.03-0.13-0.08-0.17-0.15c0,0,0-0.04,0.01-0.11c0.01-0.08,0.03-0.16,0.05-0.24c0.02-0.09,0.05-0.18,0.08-0.28
		c0.03-0.09,0.07-0.17,0.13-0.24c-0.03-0.01-0.06,0-0.09,0.02c-0.04,0.03-0.08,0.05-0.12,0.07l-0.19-0.34
		c0.04-0.05,0.09-0.09,0.14-0.13c0.05-0.04,0.1-0.08,0.14-0.13c-0.07,0-0.13-0.03-0.17-0.08c-0.03-0.05-0.07-0.11-0.11-0.18
		c0.02-0.01,0.05-0.02,0.08-0.04c0.04-0.02,0.08-0.02,0.11-0.02l0.09-0.26c-0.02-0.02-0.05-0.03-0.07-0.04
		c-0.03-0.01-0.06-0.02-0.09-0.04c-0.03-0.01-0.05-0.03-0.08-0.05c-0.02-0.01-0.04-0.03-0.04-0.06c0.01-0.03,0.03-0.07,0.06-0.09
		c0.03-0.03,0.06-0.06,0.09-0.1c0.03-0.03,0.05-0.07,0.07-0.11c0.02-0.04,0.02-0.09,0-0.14l-0.26,0.14l-0.09-0.02l-0.07-0.12
		c0.06-0.09,0.12-0.18,0.17-0.27c0.06-0.1,0.13-0.18,0.21-0.26c-0.02-0.01-0.04-0.01-0.06-0.01c-0.02,0-0.05,0-0.07,0
		c-0.02,0-0.05-0.01-0.07-0.02c-0.02-0.01-0.04-0.03-0.06-0.06c-0.02-0.04-0.03-0.09-0.03-0.14c-0.01-0.07-0.01-0.14-0.01-0.21
		c0-0.07,0.01-0.14,0.02-0.21c0.01-0.05,0.03-0.09,0.06-0.12c0.05-0.03,0.1-0.05,0.16-0.06c0.05-0.01,0.11-0.02,0.18-0.03l0.04-0.1
		c-0.04-0.01-0.09-0.01-0.13,0c-0.05,0.01-0.09,0.02-0.14,0.04c-0.04,0.01-0.08,0.02-0.13,0.02c-0.03,0.01-0.06-0.01-0.08-0.03
		c-0.02-0.03-0.03-0.07-0.04-0.11c-0.01-0.05-0.02-0.11-0.03-0.16s-0.02-0.12-0.03-0.18c-0.01-0.06-0.02-0.12-0.03-0.17
		c0.02-0.04,0.03-0.08,0.06-0.11c0.03-0.04,0.04-0.08,0.05-0.12c-0.01-0.03-0.01-0.06,0-0.08c0.01-0.04,0.01-0.07,0.02-0.11
		c0.01-0.04,0.01-0.08,0.01-0.11c0.01-0.03,0.01-0.07,0-0.1l-0.06-0.08c0.01-0.04,0.02-0.09,0.02-0.13c0-0.05,0-0.1,0.01-0.15
		c0.01-0.05,0.01-0.11,0.01-0.15c0.01-0.04,0.02-0.09,0.04-0.13c-0.05-0.01-0.09-0.04-0.11-0.09c-0.01-0.05-0.01-0.1,0-0.15
		c0.01-0.06,0.03-0.12,0.06-0.17c0.03-0.06,0.05-0.11,0.06-0.17h-0.13c-0.03,0.03-0.04,0.07-0.06,0.11
		c-0.02,0.05-0.04,0.09-0.06,0.15c-0.02,0.05-0.04,0.1-0.07,0.14c-0.02,0.04-0.05,0.07-0.09,0.1c-0.02,0.01-0.04,0.02-0.06,0.03
		c-0.01,0-0.02,0-0.03,0c-0.01,0-0.02,0-0.03,0c-0.03,0.01-0.05,0.02-0.08,0.03c-0.06,0.05-0.11,0.11-0.14,0.18
		c-0.06,0.1-0.12,0.21-0.18,0.33c-0.06,0.12-0.12,0.23-0.18,0.33c-0.03,0.07-0.08,0.13-0.14,0.18c-0.05,0.02-0.09,0.04-0.14,0.05
		c-0.07,0.02-0.14,0.03-0.21,0.05c-0.07,0.01-0.16,0.02-0.24,0.04c-0.07,0.01-0.15,0.02-0.22,0.02c-0.02-0.06-0.08-0.11-0.15-0.11
		c-0.08,0-0.17,0.01-0.25,0.03c-0.09,0.02-0.18,0.05-0.26,0.08c-0.05,0.02-0.11,0.03-0.17,0.03c-0.08-0.03-0.15-0.06-0.22-0.1
		c-0.08-0.04-0.16-0.09-0.23-0.14c-0.08-0.05-0.15-0.11-0.21-0.16c-0.06-0.05-0.12-0.11-0.18-0.16c-0.06-0.07-0.1-0.15-0.11-0.24
		c-0.01-0.09-0.01-0.19,0-0.28c-0.04-0.01-0.08-0.01-0.11-0.01c-0.04,0-0.08,0.01-0.12,0.01c-0.04,0.01-0.07,0.01-0.11,0.01
		c-0.03,0-0.05,0-0.08-0.02l-0.11-0.2l0.15-0.09c0.02-0.01,0.04-0.02,0.07-0.03l0.02,0.01v0.03c0,0.01,0.01,0.02,0.04,0.02
		c0.01-0.03,0.03-0.05,0.05-0.07c0.02-0.02,0.04-0.04,0.05-0.07c-0.02-0.02-0.05-0.03-0.07-0.04c-0.03-0.01-0.05-0.01-0.08,0
		l-0.09,0.02c-0.03,0.01-0.06,0.01-0.09,0.01c-0.02-0.02-0.04-0.03-0.06-0.03c-0.04-0.03-0.08-0.07-0.1-0.11
		c-0.01-0.04-0.02-0.08-0.02-0.13c0-0.06-0.01-0.14-0.01-0.21S10,14.61,9.99,14.52c0-0.08-0.01-0.15-0.03-0.22
		c-0.05-0.14-0.12-0.28-0.21-0.4c-0.11-0.15-0.2-0.3-0.29-0.46c-0.02-0.04-0.05-0.09-0.08-0.16c-0.03-0.07-0.06-0.14-0.08-0.22
		c-0.02-0.09-0.02-0.17-0.01-0.26c0.01-0.1,0.02-0.21,0.04-0.31c0.02-0.09,0.04-0.18,0.07-0.27c0.02-0.06,0.05-0.11,0.1-0.15
		c0.08-0.04,0.18-0.06,0.27-0.05c0.11,0.01,0.22,0.03,0.33,0.06c0.11,0.03,0.22,0.07,0.33,0.11l0.26,0.09
		c0.06,0,0.11,0.04,0.14,0.08c0.04,0.05,0.07,0.11,0.11,0.16c0.02,0.07,0.04,0.13,0.04,0.2c0.01,0.11,0.04,0.24,0.06,0.39
		c0.02,0.15,0.05,0.3,0.08,0.46c0.02,0.13,0.06,0.26,0.11,0.38c0.03,0.11,0.07,0.23,0.12,0.36c0.05,0.14,0.1,0.27,0.15,0.4
		c0.05,0.13,0.1,0.24,0.13,0.34c0.04,0.1,0.07,0.16,0.08,0.18c0.04,0.07,0.09,0.13,0.14,0.2c0.06,0.07,0.11,0.15,0.16,0.24
		c0,0.01,0,0.02,0.01,0.03c0.01,0,0.05,0,0.11-0.04c0.06-0.03,0.12-0.08,0.17-0.14c0.05-0.06,0.11-0.12,0.17-0.18
		c0.02-0.04,0.05-0.09,0.06-0.14c0.02-0.05,0.03-0.09,0.04-0.11c0.02-0.04,0.05-0.08,0.08-0.11c0.04-0.04,0.07-0.07,0.11-0.11
		c0.04-0.03,0.07-0.06,0.1-0.1c0.03-0.03,0.05-0.07,0.07-0.11c0.03-0.07,0.05-0.14,0.07-0.22c0.02-0.06,0.01-0.13-0.01-0.2
		l0.06-0.01l0.06-0.01c0.02,0,0.04,0,0.06,0.02c0,0.03-0.02,0.06-0.05,0.07c-0.03,0.02-0.05,0.06-0.06,0.1l0.19-0.08
		c0.01-0.03,0.02-0.07,0.01-0.11c0-0.01-0.01-0.02-0.02-0.02c-0.01,0-0.03,0-0.04-0.01c-0.02,0-0.03-0.03-0.04-0.07
		c0-0.07,0.01-0.13,0.02-0.2c0.01-0.08,0.03-0.16,0.06-0.24c0.02-0.07,0.05-0.14,0.08-0.21c0.01-0.05,0.04-0.09,0.08-0.12
		c0.03-0.02,0.06-0.03,0.06-0.02l0.01,0.01l0.01,0.01c0,0,0.02-0.01,0.06-0.03c0.04-0.02,0.04-0.05,0.05-0.11
		c0.01-0.06,0.01-0.12,0.01-0.19c0-0.08,0.01-0.15,0.02-0.23c0.01-0.07,0.03-0.14,0.06-0.2c0.04-0.08,0.1-0.16,0.17-0.21
		c0.09-0.07,0.18-0.14,0.28-0.2c-0.01-0.02-0.01-0.04-0.01-0.06c0-0.02-0.01-0.04-0.02-0.05c-0.02-0.01-0.04-0.02-0.06-0.02
		l-0.07-0.02c-0.02-0.01-0.05-0.01-0.07-0.02c-0.02-0.01-0.04-0.03-0.06-0.05c0.01-0.03,0.01-0.05,0.02-0.08
		c0.01-0.02,0.02-0.05,0.03-0.07c0.01-0.02,0.01-0.05,0.01-0.07c0-0.03-0.01-0.05-0.02-0.07c-0.03-0.06-0.02-0.12,0.02-0.18
		c0.04-0.07,0.09-0.14,0.14-0.2c0.06-0.06,0.11-0.12,0.16-0.16c0.03-0.03,0.06-0.05,0.09-0.07c0.05-0.03,0.11-0.05,0.17-0.06
		c0.08-0.02,0.18-0.04,0.28-0.06s0.2-0.04,0.31-0.05l0.25-0.03c0.03,0.06,0.08,0.11,0.15,0.14c0.06,0.02,0.11,0.04,0.17,0.05
		c0.06,0.01,0.11,0.02,0.16,0.04C15.8,11.11,15.83,11.15,15.86,11.19z M13.49,14.75l0.08,0.14l0.21-0.23L13.49,14.75z M15.63,23.67
		L15.4,23.8l0.05,0.08l0.24-0.13L15.63,23.67z M16.58,22.86c-0.03,0.02-0.07,0.03-0.11,0.04c-0.03,0.01-0.07,0.01-0.11,0
		c-0.02,0.04-0.05,0.09-0.08,0.15c-0.03,0.04-0.05,0.09-0.07,0.14c0.01-0.01,0.03-0.01,0.04-0.01h0.05h0.07
		c0.03-0.02,0.05-0.04,0.07-0.06c0.02-0.03,0.04-0.06,0.06-0.09c0.02-0.03,0.03-0.06,0.05-0.09C16.55,22.91,16.56,22.88,16.58,22.86
		L16.58,22.86z M16.27,23.28c0.02,0.04,0.03,0.08,0.04,0.12c0.01,0.04,0.02,0.08,0.04,0.12c0.04-0.05,0.08-0.11,0.12-0.17
		c0.03-0.05,0.06-0.1,0.09-0.15L16.27,23.28z M16.41,21.03c-0.01,0.04-0.01,0.08-0.01,0.13c0,0.05,0.01,0.08,0.03,0.1l0.02-0.06
		c0-0.02,0.01-0.05,0.01-0.07c0-0.02,0-0.04-0.01-0.06C16.45,21.04,16.42,21.02,16.41,21.03L16.41,21.03z M17.5,25.48h-0.1v-0.13
		l0.09-0.02L17.5,25.48z"/>
	<path id="Path_38" class="st0" d="M24.59,12.57c-0.01,0.05-0.01,0.08-0.02,0.11c0,0.02-0.01,0.05-0.01,0.07
		c-0.01,0.02-0.02,0.03-0.03,0.05c-0.02,0.02-0.05,0.04-0.07,0.06c-0.05,0.04-0.1,0.07-0.15,0.1c-0.05,0.03-0.09,0.07-0.12,0.12
		c0.05,0,0.09,0,0.14-0.02c0.04-0.02,0.09-0.03,0.13-0.06c0.04-0.02,0.07-0.04,0.11-0.07l0.07-0.06l0.26,0.37
		c0.02,0.03,0.02,0.07,0.02,0.11c0,0.05-0.01,0.1-0.02,0.15c-0.01,0.05-0.02,0.11-0.03,0.15c-0.01,0.03-0.02,0.06-0.02,0.09
		c0.06,0.03,0.12,0.08,0.16,0.14c0.04,0.06,0.07,0.13,0.1,0.2c0.02,0.07,0.04,0.15,0.06,0.22c0.02,0.07,0.04,0.15,0.07,0.22
		c0.02,0.03,0.04,0.06,0.05,0.09c0.02,0.04,0.05,0.08,0.07,0.12c-0.01,0.05-0.03,0.1-0.07,0.14c-0.05,0.04-0.1,0.09-0.15,0.12
		c0.01,0.03,0.02,0.06,0.04,0.07c0.02,0.02,0.04,0.04,0.07,0.06l0.08,0.05c0.02,0.02,0.05,0.04,0.06,0.06
		c0.02,0.04,0.03,0.08,0.03,0.13c0,0.07,0,0.13-0.01,0.2c-0.01,0.07-0.01,0.15-0.02,0.23c-0.01,0.08-0.02,0.15-0.03,0.21
		c0.02,0.03,0.05,0.06,0.08,0.08c0.03,0.02,0.05,0.04,0.05,0.07c0,0.04,0,0.07-0.02,0.11c-0.02,0.03-0.02,0.06-0.02,0.1
		c0.06,0.04,0.11,0.1,0.14,0.16c0.04,0.06,0.09,0.14,0.16,0.24l-0.28,0.2c0.01,0.01,0.01,0.01,0,0.02l-0.01,0.01
		c0,0.01,0,0.01,0,0.02c0.01,0.02,0.01,0.03,0.02,0.05c0.03,0.05,0.08,0.08,0.14,0.09c0.06,0,0.11,0.01,0.18,0.01
		c-0.02,0.05-0.05,0.09-0.09,0.14c-0.03,0.04-0.06,0.08-0.09,0.13c0.01,0.02,0.04,0.02,0.08,0.02c0.06,0,0.12,0,0.19,0.02
		c-0.02,0.1-0.04,0.2-0.05,0.31c-0.01,0.11-0.03,0.21-0.05,0.31c-0.02,0.09-0.05,0.18-0.08,0.27c-0.03,0.08-0.09,0.15-0.16,0.19
		l-0.15-0.08c-0.05-0.03-0.1-0.02-0.15,0.01c-0.02,0.01-0.04,0.04-0.04,0.06v0.08c0,0.03,0,0.05-0.01,0.08
		c-0.01,0.03-0.02,0.05-0.05,0.07c-0.04,0.03-0.09,0.04-0.14,0.03c-0.06-0.01-0.11-0.03-0.16-0.05c-0.05-0.02-0.09-0.05-0.14-0.08
		c-0.02-0.02-0.05-0.04-0.07-0.06c-0.01-0.01-0.02-0.03-0.02-0.05c0-0.01,0-0.03,0.01-0.04l0.02-0.03c0.01-0.01,0.01-0.02,0-0.02
		c-0.05-0.07-0.09-0.14-0.14-0.22c-0.05-0.07-0.09-0.16-0.11-0.24c0.01-0.02,0.02-0.05,0.04-0.06c0.02-0.02,0.04-0.05,0.05-0.08
		c-0.06-0.04-0.12-0.09-0.17-0.15c-0.06-0.05-0.09-0.12-0.1-0.19c0.02-0.01,0.03-0.03,0.04-0.05l0.04-0.08l0.05-0.08
		c0.02-0.03,0.04-0.05,0.06-0.07c0.04-0.03,0.09-0.05,0.14-0.06c0.04,0,0.07-0.01,0.1-0.03c-0.04-0.02-0.09-0.04-0.14-0.04
		c-0.05,0-0.1,0.01-0.14,0.05c-0.02,0.01-0.03,0.03-0.04,0.04l-0.01,0.03c0,0.01-0.01,0.02-0.02,0.03
		c-0.01,0.02-0.03,0.03-0.05,0.04c-0.04,0.03-0.08,0.05-0.13,0.05c-0.03,0-0.07-0.01-0.1-0.02c-0.03-0.01-0.05-0.03-0.07-0.05
		l-0.04-0.05c-0.01-0.02-0.02-0.04-0.01-0.06v-0.11c0-0.04,0-0.09,0-0.13c0-0.04-0.01-0.09-0.01-0.13
		c-0.01-0.06-0.03-0.11-0.07-0.16c-0.04-0.05-0.05-0.11-0.05-0.17c0-0.03,0-0.06,0.02-0.09c0.02-0.03,0.02-0.07,0.03-0.11
		c-0.06-0.08-0.11-0.16-0.18-0.25c-0.06-0.08-0.11-0.17-0.16-0.26c-0.03-0.08-0.06-0.16-0.07-0.24c-0.02-0.1-0.03-0.2-0.04-0.31
		c-0.01-0.11-0.02-0.21-0.03-0.31s-0.03-0.19-0.04-0.27c-0.01-0.04-0.03-0.09-0.06-0.13c-0.02-0.04-0.04-0.07-0.06-0.11
		c-0.02-0.04-0.03-0.08-0.04-0.12c-0.01-0.05-0.01-0.1,0-0.15c0-0.02-0.02-0.04-0.04-0.06c-0.02-0.01-0.05-0.02-0.07-0.03
		l-0.08-0.03c-0.02-0.01-0.04-0.02-0.06-0.04c0-0.06,0-0.12,0-0.18c-0.01-0.05-0.01-0.1,0-0.15c0.01-0.05,0.03-0.1,0.05-0.14
		c0.04-0.06,0.09-0.11,0.15-0.14c-0.04-0.01-0.08-0.01-0.12-0.01c-0.04,0-0.08,0-0.11,0c-0.04,0-0.07-0.01-0.11-0.02
		c-0.04-0.02-0.07-0.05-0.1-0.08c-0.01-0.02-0.02-0.05-0.02-0.08c0-0.04-0.01-0.08-0.01-0.11v-0.13c0-0.04,0-0.08-0.01-0.12
		c-0.01-0.03-0.03-0.06-0.06-0.08c-0.03-0.03-0.06-0.06-0.09-0.09c0-0.04,0.01-0.08,0.02-0.11c0.01-0.04,0.02-0.11,0.04-0.18
		c-0.09,0-0.18,0.01-0.27,0.02c-0.08,0.01-0.15,0.03-0.22,0.08c-0.05,0.03-0.09,0.07-0.11,0.12c-0.01,0.03-0.02,0.07-0.02,0.11
		l0.01,0.09c0,0.02-0.01,0.05-0.03,0.06c-0.02,0.02-0.04,0.02-0.05,0.02c-0.01,0-0.02-0.01-0.02-0.02l-0.01-0.03h-0.02
		c-0.01,0.04,0,0.08,0.04,0.1c0.03,0.02,0.06,0.04,0.08,0.07c-0.04-0.01-0.08,0-0.11,0.02c-0.04,0.02-0.08,0.05-0.13,0.08
		c-0.04,0.03-0.09,0.07-0.14,0.11c-0.05,0.04-0.09,0.09-0.11,0.14c-0.03,0.06-0.04,0.12-0.04,0.19c0.01,0.09,0.04,0.17,0.08,0.24
		c-0.02,0-0.03,0-0.05-0.01c-0.01,0-0.01,0-0.02,0l-0.02,0.02l-0.05,0.04c-0.04,0.03-0.07,0.07-0.08,0.12c0,0.05,0,0.09,0,0.13
		c-0.03,0.04-0.07,0.07-0.11,0.11c-0.04,0.03-0.08,0.07-0.11,0.11c0,0.06,0.01,0.12,0.03,0.18c0.02,0.07,0.06,0.13,0.11,0.18
		c-0.01,0.12-0.03,0.25-0.06,0.37c-0.03,0.13-0.05,0.25-0.05,0.38c-0.03,0.01-0.07,0.02-0.11,0.02c-0.06,0-0.12,0.02-0.17,0.06
		c-0.04,0.03-0.07,0.06-0.07,0.08c-0.01,0.04-0.02,0.07-0.04,0.11l0.11,0.11c-0.02,0-0.03-0.01-0.04-0.03
		c-0.01-0.01-0.01-0.02-0.01-0.03c0-0.01,0.01-0.02,0.04-0.04c0.05-0.03,0.1-0.06,0.16-0.09c0.06-0.02,0.11-0.05,0.16-0.08
		l0.18,0.26c-0.05,0.04-0.1,0.09-0.13,0.15c-0.02,0.03-0.02,0.07-0.02,0.11c0.01,0.03,0.03,0.06,0.05,0.08
		c0.02,0.02,0.04,0.04,0.05,0.06c-0.03,0.08-0.06,0.16-0.11,0.24c-0.05,0.09-0.1,0.18-0.14,0.27c0.02,0.02,0.03,0.05,0.04,0.07
		c0.01,0.02,0.03,0.01,0.08-0.02c0.05-0.03,0.09-0.08,0.08-0.12c0-0.04,0-0.07,0.01-0.11l0.04,0.06c0.04,0.01,0.09,0.01,0.13,0
		c0.05-0.02,0.1-0.03,0.15-0.03c-0.01,0.03,0,0.07,0.02,0.09c0.01,0.02,0.02,0.05,0.02,0.07c-0.03,0.02-0.05,0.04-0.06,0.07
		c-0.02,0.03-0.03,0.07-0.05,0.11l-0.05,0.12c-0.01,0.04-0.03,0.07-0.06,0.1c0.02,0.01,0.04,0.02,0.06,0.02
		c0.04,0.01,0.07,0.02,0.11,0.04c0.03,0.02,0.06,0.04,0.08,0.07c0.02,0.02,0.01,0.05-0.03,0.07c0.01,0.01,0.02,0.01,0.04,0
		l0.04-0.02c0.01-0.01,0.03-0.01,0.04-0.01c0.02,0,0.04,0.02,0.05,0.04c0.02,0.03,0.03,0.07,0.03,0.11c0,0.05,0,0.1,0,0.14
		c0,0.05-0.01,0.11-0.02,0.16c-0.01,0.05-0.02,0.09-0.02,0.13c0.01,0.02,0.03,0.04,0.03,0.06c0.01,0.03,0.02,0.06,0.02,0.09
		c0.01,0.03,0.01,0.06,0.02,0.09c0.01,0.03,0.01,0.05,0.03,0.07c0.03,0.05,0.06,0.09,0.11,0.12c0.05,0.04,0.1,0.09,0.13,0.14
		c0.04,0.06,0.06,0.12,0.07,0.19c0,0.09-0.02,0.19-0.07,0.27c0.04,0.02,0.08,0.05,0.11,0.08c0.03,0.03,0.08,0.06,0.12,0.08
		c0.04,0.18,0.09,0.37,0.13,0.57c0.05,0.21,0.08,0.42,0.1,0.63c0.03,0.02,0.06,0.03,0.09,0.04c0.03,0.01,0.05,0.02,0.08,0.03
		c-0.02,0.09-0.02,0.15,0.02,0.18c0.05,0.04,0.11,0.05,0.17,0.05c-0.01,0.03-0.02,0.06-0.01,0.09c0,0.04,0.01,0.09,0.01,0.13
		c0.01,0.04,0,0.09,0,0.13c0,0.03-0.01,0.06-0.04,0.08c-0.05,0.03-0.11,0.06-0.17,0.06c-0.05,0.01-0.1,0.02-0.15,0.03
		c-0.02-0.01-0.04-0.02-0.05-0.04c-0.02-0.02-0.04-0.04-0.07-0.05c-0.04,0-0.09,0.01-0.13,0.04c-0.04,0.02-0.08,0.03-0.13,0.04
		c-0.11,0.01-0.21,0-0.32-0.02c-0.11-0.02-0.22-0.06-0.32-0.11c-0.02,0.02-0.03,0.05-0.03,0.08c0,0.04,0.01,0.07,0.03,0.11
		c-0.04-0.04-0.07-0.07-0.11-0.11c-0.04-0.05-0.07-0.1-0.11-0.15s-0.07-0.11-0.11-0.16s-0.07-0.1-0.1-0.14
		c-0.02-0.03-0.02-0.07-0.01-0.11c0.01-0.06,0.01-0.12,0-0.18c-0.03-0.01-0.05-0.03-0.08-0.04c-0.04-0.02-0.07-0.05-0.09-0.09
		c-0.02-0.04-0.04-0.09-0.04-0.13c-0.01-0.07-0.02-0.14-0.03-0.22l-0.02-0.24c-0.01-0.06-0.02-0.12-0.04-0.18
		c-0.06-0.05-0.1-0.1-0.14-0.17c-0.04-0.07-0.07-0.13-0.11-0.2c-0.03-0.07-0.06-0.14-0.08-0.2c-0.02-0.06-0.04-0.12-0.05-0.16
		c-0.02-0.05-0.04-0.11-0.06-0.16c-0.02-0.06-0.03-0.13-0.03-0.19c0.04-0.09,0.1-0.16,0.18-0.21c-0.05-0.04-0.09-0.09-0.13-0.13
		c-0.05-0.06-0.09-0.12-0.12-0.18c0-0.03,0.01-0.06,0.02-0.08c0.02-0.03,0.03-0.07,0.03-0.1c0-0.01-0.01-0.02-0.02-0.02l-0.05-0.03
		c-0.02-0.01-0.04-0.01-0.06-0.02c-0.02-0.01-0.04-0.03-0.06-0.05c-0.02-0.03-0.02-0.06-0.02-0.09c0-0.04-0.01-0.08-0.01-0.12
		s0-0.09,0-0.13c0-0.04-0.01-0.08-0.02-0.12c-0.01-0.05-0.03-0.09-0.06-0.12c-0.04-0.04-0.08-0.08-0.13-0.11
		c0.03-0.08,0.03-0.17,0.02-0.26c-0.01-0.07-0.03-0.15-0.07-0.21c-0.03-0.06-0.07-0.12-0.1-0.18c-0.03-0.05-0.05-0.1-0.06-0.15
		c0-0.06,0-0.11,0.01-0.16c0.01-0.07,0.01-0.13,0.02-0.19c-0.03-0.01-0.07-0.02-0.11-0.02h-0.1c-0.03,0-0.06,0-0.09-0.01
		c-0.03-0.01-0.05-0.02-0.07-0.05c-0.02-0.07-0.03-0.14-0.01-0.21c0.01-0.11,0.02-0.25,0.04-0.4c0.02-0.15,0.04-0.31,0.06-0.48
		c0.02-0.17,0.04-0.31,0.06-0.44c0.02,0.03,0.05,0.05,0.08,0.07c0.03,0.02,0.07,0.04,0.11,0.05c0.06-0.14,0.13-0.28,0.21-0.41
		c0.08-0.14,0.15-0.27,0.22-0.39c0.01-0.02,0.01-0.04,0.01-0.07c0-0.02-0.01-0.05-0.02-0.07c-0.01-0.02-0.02-0.05-0.02-0.07
		c-0.01-0.03-0.01-0.05,0-0.08c0.05-0.09,0.11-0.19,0.18-0.3c0.06-0.11,0.12-0.21,0.18-0.31c0.06-0.1,0.11-0.19,0.16-0.26
		c0.03-0.05,0.06-0.09,0.11-0.13c0.03-0.02,0.07-0.03,0.11-0.02l0.14,0.01c0.05,0,0.09,0.01,0.14,0.01c0.04,0,0.07-0.01,0.1-0.02
		c0.04-0.03,0.08-0.06,0.11-0.11c0.03-0.04,0.04-0.08,0.06-0.13c-0.05,0.01-0.1,0.02-0.15,0.04c-0.05,0.02-0.09,0.04-0.14,0.05
		c0.05-0.06,0.1-0.13,0.15-0.2c0.04-0.05,0.08-0.1,0.13-0.14c0.05-0.04,0.12-0.06,0.19-0.06c0.06,0,0.12,0,0.18-0.01
		c0,0.03-0.01,0.06-0.01,0.08c-0.01,0.02,0.01,0.06,0.05,0.11c0.01,0.02,0.09,0.04,0.21,0.04c0.12,0,0.28,0,0.46-0.01
		c0.18-0.01,0.36-0.02,0.55-0.04c0.19-0.01,0.36-0.02,0.49-0.03c0,0.04,0,0.09,0.01,0.13c0.01,0.06,0,0.12-0.01,0.18
		c0.04,0,0.08-0.01,0.11-0.04c0.04-0.04,0.07-0.06,0.09-0.07c0.02,0.03,0.03,0.06,0.04,0.1c0.01,0.04,0.01,0.08,0.01,0.12
		c0.04,0.02,0.09,0.02,0.14,0.02c0.05,0,0.1,0.01,0.14,0.03c0.01,0.06,0.05,0.11,0.09,0.15c0.05,0.05,0.11,0.1,0.16,0.15l-0.06,0.04
		c-0.03,0.02-0.02,0.05,0.01,0.1c0.04,0.05,0.09,0.08,0.16,0.08C24.46,12.55,24.52,12.56,24.59,12.57z M20.56,12.85l0.13-0.09
		l0.01-0.1L20.56,12.85z M21.27,16.93c-0.02,0.02-0.05,0.02-0.08,0.01c-0.02-0.01-0.04-0.02-0.05-0.04
		c-0.02-0.02-0.03-0.05-0.03-0.07c-0.01-0.03-0.01-0.06-0.01-0.08c-0.02,0.01-0.05,0.03-0.07,0.05c-0.03,0.02-0.02,0.06,0.01,0.11
		c0.03,0.04,0.06,0.08,0.1,0.11c0.03,0.01,0.05,0.03,0.07,0.05c0.03-0.02,0.06-0.05,0.07-0.09C21.27,16.97,21.27,16.95,21.27,16.93
		L21.27,16.93z M21.42,17.19l0.02,0.07l0.13-0.01v-0.08L21.42,17.19z M22.11,20.39l-0.13,0.09l0.06,0.08l0.12-0.09L22.11,20.39z
		 M22.39,19.92c-0.02-0.02-0.04-0.04-0.07-0.05c-0.03-0.02-0.05-0.04-0.07-0.07c-0.05,0.03-0.07,0.08-0.07,0.14
		c0,0.04,0,0.08,0.02,0.11L22.39,19.92z M22.42,20.7c0.03,0.03,0.08,0.03,0.11,0.01l0.07-0.05L22.42,20.7z M24.92,14.89
		c-0.04-0.03-0.09-0.04-0.13-0.04c-0.05,0.01-0.09,0.03-0.12,0.06c-0.04,0.02-0.07,0.07-0.08,0.12c-0.01,0.03,0,0.07,0.01,0.09
		L24.92,14.89z M25.6,18.13c-0.06,0.02-0.12,0.02-0.17-0.01c-0.04-0.02-0.08-0.05-0.11-0.09c-0.03-0.04-0.05-0.08-0.07-0.12
		c-0.01-0.03-0.03-0.06-0.06-0.08c-0.02,0.01-0.05,0.02-0.08,0.03c-0.03,0-0.06,0.01-0.08,0.03c0.03,0.06,0.06,0.13,0.08,0.19
		c0.02,0.06,0.05,0.11,0.09,0.16c0.02,0.03,0.05,0.05,0.08,0.06c0.04,0.01,0.08,0.02,0.12,0.01h0.13c0.04,0,0.07,0,0.11,0
		c-0.01-0.02-0.03-0.05-0.03-0.08C25.6,18.21,25.6,18.17,25.6,18.13L25.6,18.13z"/>
	<path id="Path_39" class="st0" d="M32.15,6.27c0.05,0.09,0.1,0.17,0.16,0.25c0.06,0.08,0.12,0.17,0.19,0.27
		c0.02,0.05,0.05,0.09,0.08,0.15c0.03,0.06,0.05,0.11,0.08,0.17c0.03,0.06,0.06,0.11,0.1,0.16c0.04,0.05,0.08,0.08,0.13,0.11
		c-0.02,0.03-0.02,0.07-0.01,0.11c0.02,0.05,0.05,0.1,0.08,0.15l0.12,0.17c0.04,0.06,0.08,0.12,0.12,0.18
		c0.01,0.04,0.01,0.08,0,0.13c-0.01,0.06-0.01,0.12,0,0.18c0.01,0.03,0.02,0.05,0.04,0.07c0.02,0.02,0.04,0.04,0.07,0.06
		c0.02,0.02,0.05,0.04,0.07,0.06c0.02,0.02,0.03,0.04,0.04,0.07c0,0.06-0.01,0.12-0.04,0.17c-0.02,0.06-0.04,0.13-0.06,0.19
		c0.01,0,0.02,0,0.04,0c0.02,0,0.04-0.01,0.06-0.02l0.14,0.15c0.01,0.06,0,0.11-0.01,0.16c-0.01,0.06-0.02,0.11-0.01,0.17
		c0,0.02,0.03,0.05,0.07,0.07c0.03,0.02,0.06,0.05,0.07,0.08c-0.01,0.02-0.01,0.05,0,0.08c0.01,0.03,0.02,0.06,0.04,0.1
		c0.01,0.04,0.03,0.07,0.05,0.11c0.01,0.03,0.02,0.07,0.02,0.11c0,0.06,0,0.11-0.01,0.17c-0.01,0.05-0.03,0.11-0.05,0.2
		c0,0.01,0.01,0.02,0.03,0.03c0.02,0.01,0.04,0.01,0.06,0.01c0.02,0,0.04,0.01,0.07,0.02c0.02,0.01,0.03,0.01,0.05,0.03
		c-0.03,0.12-0.04,0.24-0.05,0.36c-0.01,0.13,0,0.27,0,0.4s0.02,0.26,0.03,0.39c0.01,0.13,0.03,0.23,0.05,0.33
		c-0.02-0.01-0.04-0.03-0.06-0.05c-0.02-0.03-0.04-0.06-0.07-0.08c-0.04,0.01-0.08,0.04-0.11,0.07c-0.03,0.05-0.06,0.1-0.08,0.16
		c0.04,0.01,0.08,0.01,0.12,0.01h0.11c0.03,0,0.07,0.01,0.1,0.01c0.03,0.01,0.06,0.03,0.08,0.05c0.02,0.02,0.02,0.04,0.02,0.07
		c0,0.04,0,0.07-0.01,0.11c-0.01,0.04-0.02,0.08-0.03,0.12c-0.01,0.03-0.03,0.06-0.05,0.08c-0.02,0.02-0.04,0.03-0.04,0.02
		c-0.01-0.01-0.02-0.01-0.02-0.02l-0.02-0.02c-0.01-0.01-0.02,0-0.04,0.02c-0.02,0.02-0.01,0.02-0.01,0.04c0,0.02,0,0.05-0.01,0.07
		c-0.01,0.03-0.02,0.05-0.04,0.08c-0.02,0.03-0.05,0.06-0.08,0.07v0.09c0.04-0.01,0.08-0.03,0.11-0.07c0.03-0.04,0.07-0.07,0.1-0.11
		l0.16,0.04c-0.05,0.05-0.1,0.1-0.14,0.15c-0.02,0.03-0.04,0.06-0.06,0.09l-0.02,0.06c0,0.02-0.02,0.04-0.03,0.05
		C33.83,12.98,33.8,13,33.77,13c-0.03,0.01-0.07,0.01-0.1,0.01c-0.04,0-0.07,0.01-0.1,0.01c-0.03,0-0.05,0.01-0.07,0.03
		c0-0.03,0-0.06-0.01-0.09c-0.01-0.02-0.02-0.05-0.04-0.07l0.02-0.01l0.02,0.01l0.03-0.01c0.02-0.01,0.03-0.02,0.05-0.04
		c0.02-0.03,0.03-0.06,0.04-0.09c0.02-0.05,0.04-0.11,0.07-0.18c0.03-0.07,0.06-0.13,0.09-0.2c0.03-0.05,0.06-0.1,0.11-0.13
		c0.01-0.01,0.03-0.03,0.05-0.06c0.02-0.02,0.03-0.05,0.04-0.08c-0.04-0.02-0.09-0.04-0.14-0.06c-0.05-0.02-0.1,0-0.13,0.03
		c-0.03,0.03-0.05,0.07-0.07,0.11c-0.02,0.06-0.04,0.12-0.06,0.18s-0.04,0.13-0.07,0.2c-0.02,0.05-0.04,0.11-0.07,0.15h-0.09
		l-0.08-0.08c0-0.02,0.01-0.05,0.01-0.07c0-0.03,0-0.07,0-0.1c0-0.04,0.01-0.07,0.01-0.09c0-0.03,0.01-0.05,0.03-0.07
		c0.03-0.03,0.07-0.04,0.11-0.04l0.04,0.01c0.01,0,0.02,0,0.03-0.01c0-0.03,0.02-0.05,0.03-0.08c0.01-0.01,0.02-0.03,0.01-0.07
		l-0.21,0c0-0.08-0.02-0.13-0.05-0.15c-0.03-0.02-0.07-0.02-0.1-0.01c-0.06,0.02-0.11,0.04-0.15,0.08
		c-0.02,0.02-0.05,0.04-0.06,0.07c-0.01,0.02-0.02,0.04-0.02,0.06c0,0.02,0,0.04,0.01,0.07c0.01,0.02,0.02,0.05,0.03,0.09
		c-0.05-0.06-0.09-0.12-0.12-0.2c-0.03-0.07-0.07-0.14-0.12-0.2h0.04h0.02c0.01,0,0.02-0.01,0.03-0.02l0.05-0.04
		c0.04-0.04,0.06-0.08,0.06-0.13c0.01-0.05,0.02-0.1,0.04-0.15c-0.08,0.01-0.15,0.04-0.22,0.09c-0.06,0.04-0.13,0.06-0.2,0.06
		c0.05-0.05,0.1-0.09,0.14-0.14c0.05-0.06,0.09-0.12,0.12-0.19c0.01-0.03,0-0.07-0.02-0.1c-0.02-0.03-0.04-0.05-0.04-0.06
		c0-0.01,0.01-0.01,0.02-0.02c0.01-0.01,0.03-0.03,0.03-0.04c0.01-0.02,0.02-0.05,0.01-0.08c0-0.04-0.02-0.09-0.04-0.13
		c-0.03,0.03-0.07,0.06-0.11,0.1c-0.04,0.03-0.07,0.07-0.09,0.12l-0.24-0.02c0.01-0.01,0.02-0.02,0.03-0.02l0.04-0.02
		c0.01-0.01,0.03-0.01,0.05-0.01c-0.01-0.05-0.03-0.09-0.05-0.13c-0.02-0.04-0.04-0.09-0.05-0.13c-0.01-0.05-0.02-0.11-0.02-0.16
		c0-0.08,0.01-0.16,0.03-0.23c-0.03,0-0.06,0.01-0.09,0.03c-0.03,0.02-0.05,0.04-0.07,0.06v-0.13c0-0.05,0-0.09-0.01-0.14
		c-0.02-0.05-0.05-0.1-0.09-0.14c-0.04-0.05-0.07-0.1-0.11-0.15c-0.03-0.05-0.06-0.1-0.07-0.16c-0.01-0.06,0-0.12,0.03-0.16
		l-0.07-0.08l-0.06-0.37c-0.02-0.12-0.04-0.25-0.04-0.37c-0.04-0.01-0.08-0.04-0.1-0.08c-0.03-0.05-0.05-0.1-0.07-0.16
		c-0.02-0.06-0.04-0.12-0.07-0.19c-0.02-0.07-0.05-0.13-0.07-0.18c-0.03-0.05-0.07-0.09-0.12-0.12c-0.05-0.03-0.1-0.09-0.12-0.14
		c-0.04-0.07-0.07-0.15-0.11-0.23s-0.07-0.17-0.11-0.25s-0.07-0.15-0.1-0.21c-0.02-0.05-0.04-0.09-0.07-0.13
		c-0.04-0.04-0.06-0.05-0.07-0.04c-0.01,0.02-0.02,0.03-0.04,0.05c-0.06-0.07-0.13-0.14-0.2-0.21c-0.06-0.06-0.13-0.11-0.21-0.14
		c-0.05-0.02-0.1-0.03-0.16-0.04c-0.04,0-0.08,0-0.12,0.01c-0.03,0.01-0.07,0.02-0.1,0.03c-0.03,0.01-0.06,0.02-0.09,0.03
		c-0.05,0.02-0.09-0.03-0.12-0.13c-0.02,0.01-0.02,0.04-0.02,0.06c0.01,0.02-0.01,0.06-0.06,0.1c-0.03,0.03-0.07,0.05-0.12,0.04
		c-0.03-0.01-0.06-0.01-0.09-0.01c-0.02,0.03-0.04,0.06-0.07,0.08c-0.03,0.03-0.06,0.05-0.1,0.08c-0.03,0.02-0.07,0.05-0.1,0.07
		c-0.03,0.02-0.05,0.04-0.08,0.06c-0.01,0.02-0.04,0.05-0.09,0.09c-0.04,0.04-0.09,0.09-0.13,0.15c-0.05,0.06-0.09,0.11-0.13,0.17
		c-0.03,0.05-0.06,0.11-0.08,0.17c-0.04,0.18-0.07,0.35-0.09,0.53c-0.02,0.19-0.04,0.4-0.07,0.6C28.51,8.93,28.5,8.97,28.48,9
		c-0.02,0.03-0.04,0.06-0.06,0.09c-0.02,0.03-0.04,0.07-0.05,0.11c-0.01,0.05-0.01,0.1,0,0.15c0.01,0.01,0.02,0.03,0.03,0.04
		c0.01,0.01,0.03,0.02,0.06,0.02c0.01-0.06,0.04-0.12,0.08-0.17c0.03-0.05,0.07-0.09,0.11-0.13c0.03,0.05,0.05,0.11,0.04,0.17
		c0,0.08,0.01,0.16,0.02,0.24h0.03l0,0l0.01-0.01c0.01-0.02,0.02-0.03,0.04-0.04c0.04-0.03,0.07-0.08,0.07-0.13l0.01-0.12
		c0.05,0.06,0.11,0.12,0.16,0.18c0.06,0.06,0.09,0.14,0.09,0.23c0.02,0,0.05-0.01,0.07-0.02c0.02-0.02,0.04-0.03,0.06-0.06
		l0.08-0.08c0.04-0.04,0.09-0.07,0.14-0.11c-0.01-0.05-0.04-0.09-0.07-0.12c-0.04-0.03-0.07-0.07-0.11-0.11
		c0.06,0.05,0.13,0.08,0.21,0.1l0.26,0.05c0.02-0.02,0.02-0.04,0.02-0.06c0-0.03,0-0.06,0-0.08c0.08,0,0.16,0,0.24,0.02
		c0.08,0.01,0.16,0.04,0.24,0.07c0.02,0.01,0.04,0.03,0.05,0.05c0.02,0.02,0.04,0.05,0.05,0.07l0.06,0.09
		c0.02,0.03,0.04,0.05,0.07,0.07c0.01,0.01,0.02,0.01,0.03,0.02l0.02,0.02c0,0,0.01,0,0.03,0c0.02-0.01,0.04-0.02,0.06-0.04
		l0.05-0.11c0.05,0.03,0.09,0.07,0.12,0.12c0.04,0.05,0.07,0.12,0.07,0.19c0.01,0.03,0.03,0.04,0.06,0.05
		c0.04,0.02,0.09,0.03,0.13,0.05c0.03,0.02,0.06,0.04,0.07,0.07c0.02,0.03,0.03,0.06,0.05,0.08c0.01,0.03,0.03,0.06,0.04,0.09
		c0.02,0.03,0.04,0.06,0.07,0.07c-0.02,0.08-0.03,0.12-0.03,0.14c0,0.01,0,0.02,0.01,0.02c0.02,0,0.03,0.01,0.05,0.02
		c0.04,0.04,0.06,0.08,0.07,0.13c0,0.06-0.02,0.12-0.03,0.17c-0.02,0.07-0.03,0.15-0.04,0.22c-0.01,0.06,0.01,0.13,0.04,0.18
		c0.05,0.06,0.12,0.08,0.2,0.07c-0.04,0.04-0.07,0.07-0.11,0.11c-0.04,0.05-0.06,0.11-0.06,0.17c0.02,0.02,0.03,0.04,0.04,0.06
		c0.01,0.02,0.04,0.01,0.08-0.02c0.02-0.03,0.05-0.05,0.08-0.07c0.01,0,0.02,0,0.04,0.02c-0.04,0.1-0.06,0.18-0.08,0.25
		c-0.02,0.07-0.03,0.14-0.05,0.22c0.05-0.01,0.09-0.03,0.14-0.05c0.04-0.02,0.09-0.02,0.13,0c-0.03,0.03-0.05,0.06-0.06,0.1
		c-0.01,0.04,0,0.08,0.03,0.11c-0.03,0.06-0.06,0.12-0.11,0.17c-0.04,0.06-0.09,0.11-0.15,0.16c0.03,0.03,0.06,0.06,0.09,0.08
		c0.04,0.02,0.08,0.02,0.12,0.01c0,0.1,0,0.21,0,0.33c0.01,0.11,0,0.22-0.01,0.33c-0.06,0.09-0.13,0.18-0.2,0.27
		c-0.07,0.1-0.14,0.2-0.19,0.31c0,0.05,0.01,0.1,0.01,0.14c0.01,0.07,0.01,0.14,0,0.21l0.03,0.03c-0.06,0.02-0.12,0.05-0.17,0.09
		c-0.06,0.05-0.14,0.08-0.21,0.11c-0.01-0.06-0.01-0.12,0-0.18c0.01-0.07,0.02-0.14,0.03-0.22c-0.01,0-0.02,0.01-0.04,0.01h-0.01
		l-0.02,0.02c-0.01,0.02-0.03,0.03-0.05,0.05c-0.02,0.03-0.04,0.06-0.04,0.09c-0.01,0.04-0.01,0.08-0.02,0.12s-0.01,0.08-0.02,0.13
		c0,0.03-0.02,0.07-0.04,0.09c-0.04,0.03-0.08,0.07-0.12,0.1c-0.04,0.03-0.08,0.04-0.13,0.04c-0.07,0-0.15,0-0.22-0.02
		c-0.08-0.02-0.16-0.02-0.24-0.02c-0.03-0.02-0.06-0.05-0.07-0.09c-0.02-0.04-0.04-0.08-0.06-0.13c-0.18-0.01-0.34-0.02-0.5-0.03
		c-0.17-0.01-0.35-0.01-0.53-0.01c0.01-0.03,0.01-0.06,0.02-0.11l0.03-0.14c0.01-0.05,0.02-0.1,0.03-0.15
		c0.01-0.04,0.01-0.09,0.02-0.14c-0.02-0.01-0.04-0.01-0.06-0.01c-0.03,0-0.06,0.01-0.09,0.01l-0.1,0.03
		c-0.02,0.01-0.04,0.02-0.06,0.03c-0.02,0.01-0.03,0.04-0.03,0.06c0,0.02,0.01,0.04,0.01,0.06c0.01,0.02,0.02,0.04,0.03,0.06
		c0.01,0.02,0.01,0.03,0.01,0.05c-0.02-0.03-0.05-0.07-0.06-0.11c-0.03-0.08-0.03-0.16-0.02-0.24c-0.06-0.02-0.13-0.02-0.2-0.01
		c-0.05,0.01-0.09,0.03-0.13,0.05c-0.04,0.02-0.07,0.05-0.11,0.07c-0.03,0.02-0.07,0.03-0.11,0.03c-0.06-0.05-0.12-0.1-0.16-0.17
		c-0.06-0.07-0.12-0.14-0.17-0.2c-0.01-0.01-0.02-0.01-0.04-0.01c-0.02,0-0.04,0-0.06-0.01l-0.06-0.01
		c-0.02-0.01-0.05-0.02-0.06-0.04c-0.03-0.03-0.05-0.06-0.06-0.1c-0.02-0.05-0.04-0.1-0.07-0.16c-0.02-0.06-0.04-0.12-0.06-0.19
		c-0.02-0.06-0.04-0.13-0.06-0.19c-0.04-0.01-0.07-0.03-0.1-0.05c-0.04-0.02-0.08-0.06-0.1-0.1c-0.01-0.06-0.01-0.12,0-0.18
		c0.01-0.05,0.01-0.1,0.03-0.16c-0.03-0.04-0.06-0.08-0.11-0.11c-0.04-0.03-0.08-0.06-0.11-0.09c0.02-0.02,0.03-0.04,0.04-0.06
		c0.02-0.03,0.03-0.07,0.04-0.1c0.01-0.03,0.02-0.07,0.02-0.1c0.01-0.02,0-0.05-0.01-0.07c-0.01-0.03-0.04-0.05-0.06-0.06
		l-0.13-0.05c-0.01-0.01-0.01-0.04,0.01-0.07c0.02-0.04,0.05-0.07,0.08-0.1c-0.03-0.04-0.07-0.08-0.12-0.13
		c-0.05-0.05-0.08-0.12-0.09-0.2c0-0.04-0.01-0.08-0.01-0.13c-0.01-0.05-0.01-0.1-0.01-0.15c0-0.05,0-0.09,0.01-0.14
		c0-0.04,0.02-0.07,0.04-0.09c0.02-0.02,0.04-0.03,0.06-0.04l0.05-0.02c0.02-0.01,0.04-0.02,0.06-0.04
		c0.02-0.02,0.05-0.04,0.09-0.08c-0.02-0.02-0.03-0.05-0.04-0.08c-0.01-0.04-0.04-0.07-0.08-0.08c0,0.04-0.02,0.08-0.04,0.11
		c-0.01,0.03-0.03,0.07-0.06,0.09c-0.02-0.03-0.04-0.06-0.06-0.09c-0.01-0.01-0.02-0.02-0.02-0.02h-0.03
		c-0.03-0.01-0.05-0.02-0.07-0.03c0-0.02,0.02-0.03,0.04-0.04c0.03,0,0.05,0,0.08,0c0.02-0.05,0.03-0.09,0.05-0.13
		c0.01-0.05,0-0.1-0.02-0.15c-0.02,0.02-0.04,0.02-0.07,0.02c-0.02,0-0.05-0.01-0.06-0.03c0.01-0.01,0.03-0.02,0.05-0.01l0.08-0.01
		l0.09-0.01c0.02-0.01,0.05-0.02,0.06-0.03c0.03-0.03,0.06-0.06,0.07-0.09c0.01-0.02,0.02-0.05,0.04-0.06
		c0-0.05-0.02-0.09-0.05-0.13c-0.02-0.02-0.04-0.03-0.07-0.03l-0.09,0.01c-0.04-0.01-0.08-0.03-0.1-0.06l0.01-0.16
		c0.04,0,0.07,0.01,0.11,0.02c0.03,0.01,0.05,0.02,0.08,0.02c0.04-0.04,0.04-0.12,0-0.24c-0.03-0.02-0.06-0.02-0.09-0.02
		c-0.02,0-0.05,0-0.07,0c-0.02,0-0.03-0.01-0.04-0.03c-0.01-0.04,0-0.08,0.01-0.12c0.05-0.01,0.08-0.01,0.1,0.02
		c0.02,0.02,0.02,0.05,0.02,0.08h0.03h0.01l0.02-0.02l0.04-0.04c0.02-0.02,0.04-0.05,0.05-0.08c0.01-0.03,0.02-0.07,0.03-0.11
		c0.01-0.04,0.01-0.07,0.02-0.11c0.01-0.03,0.02-0.06,0.05-0.08c0.01-0.02,0.03-0.03,0.05-0.03c0.01,0,0.02,0,0.02,0l0.01,0.01
		l0.02-0.01c0-0.04-0.02-0.07-0.05-0.08C27.03,8.48,27,8.46,26.98,8.44l0.07-0.07c0.03-0.04,0.06-0.08,0.09-0.12
		c0.02-0.04,0.02-0.08,0-0.11c-0.02-0.03-0.08-0.05-0.18-0.05l0.12-0.11C27.1,7.99,27.12,8,27.15,8c0.03,0,0.05,0.01,0.07,0.03
		c0.02,0.02,0.03,0.04,0.04,0.07c0.01,0.04,0,0.07-0.01,0.11c-0.01,0.01-0.01,0.01,0,0.02c0.01,0,0.03-0.01,0.06-0.05
		c0.04-0.04,0.05-0.1,0.02-0.15c-0.02-0.06-0.05-0.12-0.09-0.16c0.02-0.01,0.04-0.01,0.07,0c0.03,0.01,0.07,0.02,0.1,0.03
		l-0.01-0.03c0-0.03,0-0.06,0-0.09c-0.03-0.02-0.06-0.03-0.09-0.03c-0.04,0-0.07-0.01-0.1-0.04c0.03-0.02,0.06-0.05,0.08-0.07
		c0.03-0.04,0.05-0.08,0.04-0.13c-0.03,0-0.05,0.01-0.07,0.03c-0.02,0.02-0.04,0.04-0.06,0.07c-0.02,0.02-0.04,0.05-0.05,0.08
		c-0.01,0.02-0.03,0.05-0.05,0.07c-0.04,0.04-0.08,0.05-0.11,0.04c-0.03-0.02-0.06-0.02-0.09-0.02c0.01-0.01,0.03-0.02,0.05-0.03
		h0.08c0.02-0.03,0.03-0.07,0.03-0.11c0-0.03,0-0.06-0.01-0.1c0-0.03-0.01-0.06-0.01-0.08c0-0.03,0.01-0.05,0.03-0.07
		c0.03-0.03,0.06-0.05,0.1-0.06c0.02,0,0.05-0.01,0.07-0.03c0.01-0.08-0.02-0.16-0.07-0.21c0.01-0.03,0.02-0.05,0.04-0.07
		c0.03-0.03,0.05-0.06,0.07-0.1c0.02-0.04,0.03-0.07,0.04-0.11c0.01-0.05,0-0.09-0.03-0.13l-0.02,0.01h-0.01h-0.02l-0.05,0.04
		c-0.04,0.04-0.05,0.07-0.04,0.09c0.01,0.02,0.01,0.04-0.01,0.05c0-0.03-0.02-0.06-0.05-0.07c-0.03-0.01-0.06-0.02-0.1-0.01
		c0.06-0.06,0.11-0.12,0.15-0.18c0.06-0.08,0.12-0.16,0.17-0.24c0.03,0,0.06,0,0.08,0c0.02,0,0.03,0.02,0.01,0.07
		c0.03-0.01,0.07-0.02,0.09-0.04l0.1-0.07c0.03-0.02,0.06-0.05,0.1-0.07c0.03-0.02,0.06-0.04,0.1-0.05c0.06-0.03,0.13-0.05,0.2-0.06
		c0.05-0.01,0.11-0.02,0.16-0.02c0.05,0,0.1,0,0.15,0.01c0.02-0.01,0.03-0.03,0.04-0.05c0-0.01,0-0.01,0-0.02c0-0.01,0-0.02,0-0.02
		c0-0.01,0.01-0.02,0.04-0.04c0.05-0.05,0.11-0.08,0.18-0.09c0.08-0.02,0.15-0.03,0.23-0.04c0.08-0.01,0.15-0.01,0.21-0.01
		c0.05,0,0.1-0.01,0.15-0.02c0.02,0,0.04,0.02,0.08,0.05c0.04,0.03,0.09,0.04,0.13,0.01c0.07-0.02,0.14-0.05,0.2-0.08
		c0.06-0.03,0.12-0.06,0.18-0.08c0.06-0.02,0.13-0.03,0.2-0.05c0.09-0.02,0.18-0.03,0.27-0.03c0.09-0.01,0.17,0,0.26,0.01
		c0.08,0.01,0.13,0.03,0.14,0.07c0.11-0.02,0.22-0.01,0.33,0.02c0.08,0.03,0.15,0.06,0.22,0.09c0.06,0.03,0.12,0.06,0.19,0.09
		c0.07,0.02,0.14,0.02,0.21,0c0.04,0.03,0.07,0.07,0.07,0.12c0.01,0.05,0.01,0.11-0.01,0.16c0.02,0.02,0.04,0.02,0.08,0
		c0.04-0.02,0.07-0.04,0.11-0.07c0.05,0.02,0.09,0.05,0.11,0.1c0.02,0.05,0.04,0.1,0.06,0.15c0.03,0,0.07-0.01,0.09-0.04
		C32.11,6.31,32.13,6.29,32.15,6.27z M26.7,7.96l-0.05-0.05l0.08-0.08l0.05,0.05L26.7,7.96z M27.08,9.7l-0.03,0.13l0.05,0.05
		l0.05-0.14L27.08,9.7z M27.67,12.16c-0.03,0-0.07,0-0.1,0.01c-0.03,0.01-0.06,0.02-0.1,0.01c-0.02,0.05-0.04,0.1-0.06,0.16
		c-0.03,0.06-0.06,0.09-0.09,0.11c0.07-0.02,0.13-0.06,0.19-0.11C27.57,12.3,27.62,12.23,27.67,12.16L27.67,12.16z M27.89,11.18
		c-0.03,0.01-0.06,0.01-0.09,0.02l-0.12,0.02c-0.04,0.01-0.08,0.01-0.11,0.02c-0.03,0.01-0.05,0.02-0.07,0.04
		c0.03,0.04,0.07,0.08,0.11,0.13c0.04,0.06,0.05,0.13,0.04,0.2l0.18-0.01l0.01-0.16c-0.02,0.02-0.05,0.03-0.08,0.02
		c-0.04-0.01-0.05-0.02-0.05-0.05c0.05-0.02,0.09-0.06,0.12-0.11C27.83,11.25,27.86,11.21,27.89,11.18L27.89,11.18z M30.6,10.89
		c-0.08,0.02-0.16,0.02-0.24,0.01c-0.06-0.01-0.13,0-0.18,0.04c-0.02,0.02-0.03,0.03-0.03,0.04L30.15,11v0.02
		c-0.01,0.01-0.02,0.03-0.03,0.04c-0.01,0.01-0.03,0.03-0.04,0.04h-0.02l-0.02-0.01c-0.01-0.01-0.02-0.01-0.03-0.01L30,10.95
		c0.07-0.03,0.13-0.07,0.18-0.13c0.04-0.06,0.08-0.11,0.13-0.16c-0.05,0-0.1,0.01-0.14,0.03c-0.05,0.02-0.11,0.05-0.16,0.08
		c-0.05,0.03-0.09,0.06-0.13,0.08l-0.06,0.04l-0.21-0.23c-0.02-0.03-0.02-0.07-0.01-0.11c0.02-0.02,0.02-0.05,0.02-0.08
		c-0.04-0.06-0.09-0.13-0.14-0.21c-0.04-0.06-0.09-0.13-0.14-0.18c-0.04-0.03-0.08-0.04-0.13-0.04c-0.07,0-0.14,0-0.22,0
		s-0.17,0.01-0.25,0.02c-0.07,0-0.14,0-0.21,0c-0.01,0.09-0.02,0.17-0.04,0.26c-0.02,0.08-0.03,0.14-0.05,0.19
		c-0.02,0-0.03-0.01-0.04-0.02c-0.01-0.01-0.02-0.02-0.04-0.03c-0.01-0.01-0.03-0.01-0.04-0.01c-0.02,0-0.04,0.01-0.05,0.03
		c-0.03,0.02-0.06,0.06-0.07,0.1c0,0.02-0.02,0.04-0.03,0.06c0.04,0.04,0.07,0.07,0.1,0.11c0.03,0.03,0.04,0.06,0.06,0.09
		c0.03,0.01,0.07,0.02,0.11,0.03c0.05,0.01,0.07,0.02,0.08,0.05c0.02,0.07,0.05,0.15,0.07,0.25c0.02,0.09,0.04,0.18,0.04,0.27
		c0.05,0.15,0.1,0.31,0.15,0.45c0.04,0.13,0.1,0.25,0.16,0.38c0.02,0.01,0.04,0.01,0.07,0.01c0.02,0,0.04,0.02,0.04,0.04
		c0.01,0.04,0.02,0.07,0.04,0.11c0.02,0.04,0.04,0.08,0.07,0.11l0.08,0.11c0.02,0.03,0.04,0.06,0.07,0.08
		c0.07,0.07,0.13,0.15,0.18,0.24c0.04,0.08,0.1,0.15,0.17,0.21c0.01,0.03,0.01,0.07,0,0.1c-0.01,0.03-0.02,0.07-0.02,0.11
		c0.04,0,0.07,0.01,0.11,0.01c0.04,0.01,0.08,0.02,0.13,0.03c0.04,0.01,0.08,0.03,0.12,0.05c0.03,0.01,0.06,0.03,0.08,0.06
		c0.02,0.02,0.03,0.05,0.04,0.08c0.03,0.06,0.06,0.11,0.11,0.15l0.18-0.17c0.01-0.02,0.02-0.05,0.01-0.08
		c-0.01-0.02-0.01-0.04-0.02-0.06c-0.01-0.02-0.01-0.04-0.02-0.06c0-0.02,0-0.04,0.02-0.05c0.06-0.06,0.13-0.11,0.2-0.16
		c0.08-0.05,0.15-0.12,0.21-0.19c0.03-0.01,0.06-0.01,0.1-0.01c0.03,0,0.06-0.01,0.08-0.03c-0.04-0.02-0.08-0.04-0.12-0.07
		c-0.02-0.02-0.05-0.04-0.08-0.05l-0.01-0.03c-0.01-0.01-0.01-0.02-0.01-0.03v-0.02c0.02-0.01,0.05-0.01,0.07-0.01
		c0.02,0,0.04,0.01,0.06,0.01c0.02,0,0.03,0,0.05,0c0.02,0,0.03-0.01,0.05-0.02c0.04-0.04,0.07-0.08,0.11-0.12
		c0.02-0.03,0.05-0.06,0.07-0.08c-0.07-0.01-0.13-0.04-0.18-0.09l-0.05-0.05c-0.01-0.02-0.03-0.04-0.05-0.05l0.13-0.12l-0.21-0.23
		c-0.05,0.04-0.1,0.08-0.15,0.12c-0.06,0.04-0.11,0.09-0.14,0.16c-0.01-0.02-0.03-0.02-0.06-0.02c-0.02,0-0.05-0.02-0.09-0.06
		c-0.03-0.03-0.05-0.08-0.03-0.12c0.02-0.05,0.03-0.1,0.03-0.15c0.05-0.02,0.1-0.03,0.15-0.03c0.05,0,0.1-0.02,0.14-0.06
		c0.02-0.01,0.03-0.03,0.04-0.05l0.01-0.03c0-0.01,0-0.02-0.01-0.02c-0.03-0.03-0.06-0.06-0.09-0.09l-0.08-0.11
		c-0.02-0.04-0.05-0.07-0.08-0.1c-0.03-0.03-0.06-0.05-0.09-0.06c-0.01-0.06-0.01-0.11-0.02-0.17c-0.01-0.05,0.01-0.1,0.05-0.13
		c0.04-0.04,0.08-0.07,0.12-0.1C30.54,10.93,30.57,10.91,30.6,10.89z M29.7,11.19l-0.05-0.05l0.15-0.14l0.05,0.05L29.7,11.19z
		 M29.78,6.58l-0.1,0.09l0.05,0.05l0.11-0.09L29.78,6.58z M29.85,11.18c0.04,0.06,0.07,0.13,0.09,0.2c0.03,0.05,0.04,0.11,0.03,0.17
		c0.03,0.07,0.08,0.12,0.15,0.13c0.01,0.07,0,0.14-0.03,0.2c-0.03,0.06-0.05,0.12-0.05,0.18c0.09-0.03,0.16-0.03,0.19-0.01
		c0.03,0.03,0.05,0.06,0.05,0.11c0.01,0.05,0.01,0.11,0.02,0.17c0,0.06,0.03,0.12,0.07,0.16c-0.03,0.02-0.06,0.04-0.09,0.06
		c-0.04,0.02-0.07,0.06-0.08,0.1l0.11,0.12c0.02,0,0.05,0,0.07,0c0.01,0.01,0.04-0.01,0.08-0.05c0.04-0.05,0.08-0.1,0.1-0.16
		c0.03-0.08,0.06-0.14,0.08-0.19l0.13,0.13c-0.07,0.09-0.13,0.19-0.19,0.29c-0.06,0.11-0.14,0.21-0.22,0.3
		c0,0.02,0.01,0.03,0.01,0.04l0.03,0.04c0.01,0.01,0.01,0.03,0.01,0.04c-0.01,0.02-0.02,0.04-0.04,0.06
		c-0.05,0.04-0.11,0.07-0.18,0.08c-0.09,0.02-0.17,0.05-0.24,0.09l-0.17-0.18c0.03-0.02,0.06-0.04,0.09-0.06
		c0.03-0.02,0.07-0.03,0.11-0.03c-0.02-0.03-0.03-0.06-0.04-0.09c-0.01-0.04-0.02-0.09-0.04-0.13c-0.01-0.05-0.03-0.09-0.05-0.14
		c-0.02-0.04-0.04-0.08-0.07-0.11c0.01-0.03,0.03-0.06,0.06-0.08c0.03-0.03,0.06-0.06,0.09-0.09c-0.05-0.02-0.09-0.06-0.11-0.11
		c-0.02-0.05-0.03-0.1-0.04-0.15c0-0.05,0-0.11,0-0.16c0-0.04,0-0.08-0.01-0.11l-0.03-0.15c-0.01-0.03-0.01-0.07-0.01-0.11
		c0-0.03,0.01-0.06,0.03-0.09c0.02-0.04,0.05-0.07,0.08-0.11l0.01-0.01c0.02-0.02,0.02-0.04,0.02-0.06h-0.08
		c-0.02,0-0.04-0.01-0.05-0.03c0.01-0.01,0.02-0.02,0.03-0.02c0.03-0.01,0.06-0.02,0.09-0.02c0.02-0.01,0.02-0.04,0.01-0.09
		C29.87,11.29,29.86,11.23,29.85,11.18L29.85,11.18z M30.09,12.75l-0.12,0.11l0.06,0.07l0.12-0.11L30.09,12.75z M29.99,12.53
		l0.05,0.05l0.16-0.06l-0.03-0.06L29.99,12.53z M30.29,11.36v0.06H30.2l-0.02-0.08L30.29,11.36z M30.56,10.15l-0.17,0.15l0.06,0.07
		l0.17-0.15L30.56,10.15z M30.44,11.99l0.04,0.05l0.17-0.06l-0.03-0.07L30.44,11.99z M31,10.29l-0.15-0.16l-0.27,0.25
		c0.08,0,0.15-0.01,0.22-0.03C30.89,10.33,30.95,10.31,31,10.29L31,10.29z M31.32,13.1c-0.03-0.03-0.06-0.05-0.1-0.06
		c-0.04-0.02-0.09-0.03-0.14-0.02c-0.02,0.04-0.03,0.07-0.04,0.11c-0.01,0.05-0.01,0.09-0.02,0.14c0,0.04-0.01,0.09-0.02,0.13
		c-0.01,0.03-0.02,0.07-0.04,0.09c-0.02,0.02-0.04,0.03-0.07,0.03c-0.02,0-0.04-0.01-0.06-0.01c-0.02-0.01-0.04-0.02-0.05-0.03
		l-0.05-0.03c0,0.03,0,0.08,0.01,0.12c0.01,0.04,0.03,0.09,0.06,0.12c0.05-0.05,0.11-0.08,0.18-0.1c0.05-0.01,0.1-0.03,0.14-0.06
		c-0.02-0.05-0.03-0.1-0.06-0.15c-0.02-0.05-0.01-0.1,0.03-0.13L31.32,13.1z M30.8,11.14c0.02,0.02,0.03,0.05,0.04,0.08
		c0,0.03,0.02,0.05,0.04,0.07l0.07-0.06c-0.01-0.02-0.03-0.04-0.05-0.05l-0.03-0.03c-0.01-0.01,0-0.02,0.01-0.03
		c0.02-0.02,0.04-0.05,0.06-0.07L30.8,11.14z M31.1,11.67c-0.02,0.02-0.02,0.03,0,0.06l0.05,0.06c-0.02-0.02-0.02-0.05-0.02-0.08
		C31.12,11.66,31.11,11.65,31.1,11.67L31.1,11.67z M31.41,12.87l-0.06-0.07l-0.08,0.08l0.06,0.07L31.41,12.87z M32.44,9.71
		L32.3,9.84l0.04,0.05l0.14-0.12L32.44,9.71z M32.98,9.83l-0.2,0.19l0.06,0.06l0.2-0.18L32.98,9.83z M32.96,9.54
		c0-0.03-0.02-0.06-0.05-0.08c-0.03-0.02-0.06-0.03-0.09-0.04c0.01,0.02,0.02,0.04,0.02,0.06c0,0.02,0.01,0.05,0.01,0.07
		c0,0.02,0,0.05-0.01,0.07c0,0.02-0.01,0.03-0.02,0.05L32.96,9.54z M32.91,10.89l-0.03,0.06l0.2,0.09l0.05-0.05L32.91,10.89z
		 M33.37,10.02c0.04,0,0.09-0.01,0.12-0.03c0.05-0.02,0.07-0.05,0.08-0.08L33.37,10.02z M33.52,11.45c-0.01,0.03-0.01,0.07,0.01,0.1
		c0,0.01,0.01,0.03,0.02,0.03c0.02-0.02,0.02-0.05,0.02-0.08C33.58,11.48,33.55,11.45,33.52,11.45
		C33.52,11.45,33.52,11.45,33.52,11.45L33.52,11.45z"/>
	<path id="Path_40" class="st0" d="M26.9-4.32c0.04,0.07,0.09,0.14,0.14,0.21l0.15,0.19c-0.05,0.05-0.1,0.09-0.16,0.12
		c-0.05,0.02-0.08,0.06-0.09,0.11c0.04,0.01,0.09,0,0.13-0.02c0.04-0.02,0.08-0.02,0.12-0.03c-0.02,0.03-0.05,0.06-0.07,0.09
		c-0.02,0.04-0.05,0.07-0.09,0.11c0,0.03,0.03,0.06,0.06,0.07c0.03,0.01,0.06,0.02,0.08,0.04c-0.01,0.07,0.01,0.15,0.05,0.21
		c0.04,0.09,0.08,0.19,0.11,0.28c-0.01,0.03-0.02,0.05-0.03,0.08c-0.02,0.05-0.04,0.09-0.08,0.13c-0.02,0.02-0.03,0.04-0.02,0.04
		l0.04,0.01l0.03,0.01c0.01,0,0,0.02-0.02,0.04c-0.01,0.02-0.03,0.03-0.05,0.04c-0.01,0-0.02,0-0.02-0.01l-0.02-0.02
		c-0.01-0.01-0.03-0.01-0.05,0c0,0.09,0.02,0.18,0.07,0.26c0.05,0.09,0.09,0.2,0.13,0.3c0.03,0,0.07,0.01,0.1,0.02
		C27.5-2,27.56-1.95,27.62-1.89l0.07,0.08h-0.02c-0.02,0-0.04-0.01-0.06-0.01c-0.04-0.01-0.07-0.01-0.08,0.01
		c-0.02,0.02-0.05,0.02-0.08,0.03c0.02,0.03,0.04,0.06,0.08,0.08c0.04,0.03,0.07,0.07,0.07,0.12c0,0.02,0,0.04-0.01,0.05l-0.04,0.06
		c-0.01,0.02-0.02,0.05-0.02,0.07c-0.01,0.03-0.01,0.06,0,0.08c0.03,0,0.06,0.01,0.09,0.03l0.06,0.05
		c-0.02,0.02-0.04,0.03-0.07,0.03C27.57-1.2,27.54-1.2,27.51-1.2c-0.03,0.04-0.04,0.08-0.05,0.12c0,0.03,0.01,0.06,0.03,0.08
		c0.02,0.02,0.05,0.05,0.08,0.06l0.1,0.06l-0.22,0.04c0,0.04,0.02,0.08,0.04,0.11c0.02,0.02,0.04,0.05,0.06,0.06
		c0.02,0.02,0.05,0.03,0.07,0.05c0.02,0.01,0.04,0.03,0.06,0.05c-0.01,0.07,0,0.15,0.01,0.22c0.02,0.08,0.03,0.16,0.05,0.24
		c0.02,0.07,0.03,0.14,0.04,0.22c0.01,0.05,0,0.09-0.02,0.13C27.72,0.29,27.71,0.3,27.7,0.3l-0.02-0.01l-0.02-0.02
		c-0.01-0.01-0.02-0.02-0.04-0.01c0,0.04,0.02,0.07,0.03,0.11c0.02,0.03,0.03,0.06,0.04,0.09c-0.03,0.11-0.05,0.23-0.05,0.35
		c0,0.12-0.02,0.23-0.04,0.35c-0.02,0.06-0.05,0.12-0.08,0.18c-0.04,0.07-0.08,0.15-0.14,0.24c-0.01,0.01,0,0.04,0.02,0.08
		c0.02,0.05,0.04,0.09,0.06,0.14c-0.02,0.04-0.04,0.07-0.07,0.11c-0.03,0.03-0.05,0.06-0.07,0.09c-0.02,0.03-0.03,0.07-0.03,0.11
		c0,0.04,0.02,0.09,0.05,0.12l-0.08,0.08c-0.02-0.05-0.05-0.11-0.09-0.15c-0.03-0.04-0.08-0.08-0.13-0.11
		c-0.03-0.01-0.07,0-0.1,0.02c-0.03,0.03-0.06,0.04-0.1,0.05c0.03,0.05,0.06,0.1,0.1,0.15c0.04,0.04,0.07,0.09,0.11,0.13
		c0.03,0.06,0.06,0.12,0.09,0.18c0.03,0.07,0.05,0.13,0.08,0.21s0.05,0.14,0.08,0.21c0.03,0.07,0.06,0.13,0.1,0.19l0.05,0.05
		c0.01-0.04,0.02-0.09,0.03-0.13c0-0.03-0.01-0.06-0.04-0.08l0.23-0.24c0.02,0.01,0.03,0.02,0.04,0.04
		c0.01,0.02,0.02,0.04,0.03,0.06c0.01,0.02,0.02,0.04,0.04,0.06c0.01,0.02,0.04,0.03,0.06,0.03c-0.01-0.03-0.01-0.06-0.01-0.09
		c0-0.02,0.02-0.06,0.07-0.11c0.02-0.02,0.05-0.04,0.08-0.04c0.08-0.01,0.16,0,0.24,0.02c0.03,0.01,0.07,0.02,0.1,0.04
		c0.03,0.03,0.06,0.06,0.07,0.11c0.02,0.06,0.04,0.13,0.06,0.19c0.01,0.07,0.02,0.13,0.02,0.2c0,0.05-0.01,0.09-0.04,0.13
		c-0.02,0.02-0.04,0.03-0.04,0.02l-0.02-0.02c0-0.01-0.01-0.02-0.02-0.02c-0.01,0-0.03,0.01-0.05,0.03v0.02
		c0.01,0.01,0.01,0.03,0.02,0.04c0.01,0.02,0.01,0.05,0,0.07c-0.02,0.04-0.04,0.08-0.07,0.12c-0.03,0-0.06-0.02-0.08-0.07
		c-0.02-0.04-0.06-0.08-0.1-0.11l-0.02,0.01h-0.02L28,3.52c-0.02,0.01-0.04,0.03-0.05,0.05c-0.02,0.02-0.03,0.05-0.04,0.08
		c0,0.04,0,0.08,0,0.12l0.01,0.14c0,0.04,0,0.09-0.01,0.13c-0.02-0.01-0.04-0.04-0.07-0.07c-0.02-0.03-0.05-0.05-0.08-0.07
		c-0.01,0-0.03,0-0.04-0.01l-0.02-0.02c-0.01,0-0.02,0-0.03,0c-0.02,0.01-0.04,0.02-0.05,0.04c-0.02,0.02-0.03,0.04-0.03,0.05
		c0,0.01,0,0.01,0,0.02V4c-0.01,0.02-0.02,0.03-0.03,0.04c-0.04,0.05-0.1,0.08-0.16,0.08c-0.06,0.01-0.11,0.01-0.14,0.01
		c-0.02-0.03-0.04-0.05-0.07-0.07c-0.03-0.02-0.06-0.03-0.1-0.04c-0.04-0.01-0.07-0.01-0.11-0.02L26.89,4
		c-0.11-0.02-0.23-0.04-0.34-0.05c-0.11-0.01-0.21-0.02-0.31-0.04c-0.08-0.07-0.17-0.12-0.27-0.15c-0.07-0.01-0.13,0-0.2,0.01
		c-0.06,0.02-0.13,0.01-0.19-0.03c-0.04-0.03-0.07-0.07-0.1-0.12c-0.04-0.07-0.07-0.14-0.09-0.21c-0.03-0.07-0.05-0.14-0.06-0.21
		c-0.01-0.07,0-0.11,0.02-0.14c0.02-0.02,0.03-0.03,0.04-0.03l0.01,0.01l0.01,0.01c0,0,0.02-0.01,0.04-0.03
		c0-0.04-0.01-0.09-0.02-0.13c-0.01-0.08-0.03-0.18-0.04-0.28c-0.01-0.1-0.02-0.2-0.02-0.3c-0.01-0.07,0.01-0.14,0.04-0.19
		c0.02-0.02,0.04-0.04,0.05-0.03l0.01,0.01l0.01,0.01c0.02-0.01,0.03-0.02,0.04-0.04c0,0,0-0.04,0.01-0.12
		c0.01-0.08,0.01-0.18,0.02-0.3c0.01-0.12,0.01-0.25,0.02-0.39s0.02-0.27,0.03-0.39s0.02-0.23,0.03-0.32c0-0.05,0.01-0.1,0.04-0.15
		c0.02-0.02,0.04-0.04,0.06-0.04c0.01,0,0.03,0,0.04,0.01c0.01,0.01,0.03,0.01,0.04,0.02c0.01,0.01,0.02,0.02,0.04,0.01
		c-0.01-0.11-0.01-0.21,0-0.32c0.01-0.1,0.03-0.21,0.06-0.31l0.14-0.02C26.02-0.29,26-0.34,25.98-0.4
		c-0.02-0.06-0.04-0.12-0.06-0.18c-0.01-0.05-0.02-0.11-0.02-0.16c0-0.04,0.01-0.08,0.03-0.11c0.03-0.04,0.08-0.06,0.13-0.05
		c0.04,0.01,0.08,0.02,0.11,0.02c0-0.19-0.01-0.38-0.02-0.57c-0.02-0.19-0.04-0.39-0.06-0.6c0.04,0.01,0.08,0.01,0.13,0.02
		c0.05,0,0.09-0.01,0.12-0.05c0.03-0.03,0.06-0.07,0.06-0.11l-0.02-0.13c-0.03-0.02-0.06-0.04-0.1-0.05
		c-0.05-0.02-0.07-0.04-0.08-0.06c-0.01-0.07-0.02-0.14-0.02-0.21c-0.01-0.08,0.02-0.15,0.07-0.21c0.02-0.02,0.03-0.03,0.04-0.03
		l0.01,0.01h0.01c0.01,0,0.02-0.01,0.04-0.04c0.01-0.02,0.02-0.04,0.02-0.06c-0.01-0.02-0.01-0.05-0.02-0.07
		c-0.01-0.03-0.02-0.06-0.03-0.08c-0.01-0.03-0.02-0.06-0.02-0.09c0.06-0.02,0.13-0.03,0.2-0.03c0.08,0,0.16-0.02,0.23-0.06
		l-0.01-0.02v-0.02l-0.02-0.03c-0.02-0.02-0.04-0.03-0.06-0.04c-0.02-0.02-0.05-0.02-0.08-0.02c-0.03,0-0.05,0-0.08,0.01l-0.08,0.02
		c-0.03,0.01-0.05,0.01-0.08,0l0.01-0.02l-0.01-0.02c0-0.01,0-0.03,0-0.04c0.01-0.02,0.02-0.04,0.04-0.06
		c0.04-0.04,0.07-0.06,0.09-0.05c0.02,0.01,0.05,0.02,0.08,0.01l-0.02-0.11c0.01-0.05,0.02-0.1,0.02-0.15c0-0.05,0-0.09,0-0.14
		c0-0.04,0-0.08,0-0.12c0-0.03,0.02-0.07,0.04-0.09c0.04-0.04,0.1-0.07,0.15-0.07C26.79-4.28,26.84-4.3,26.9-4.32z M25.75,2
		c-0.02,0.02-0.03,0.04-0.03,0.07c-0.01,0.03-0.01,0.06-0.01,0.09c0,0.03,0,0.05,0.01,0.08c0,0.02,0.01,0.04,0.03,0.04
		c0.01-0.01,0.01-0.03,0.02-0.05c0-0.03,0-0.05,0-0.08c0-0.02,0-0.05,0-0.08L25.75,2z M25.78,0.5l0.09,0.14l0.06-0.03l-0.11-0.16
		L25.78,0.5z M26.27-0.71l-0.09-0.03c-0.03-0.01-0.06-0.02-0.08-0.04l-0.14,0.15c0.06,0,0.11-0.01,0.16-0.03
		C26.17-0.69,26.22-0.7,26.27-0.71L26.27-0.71z M26.6-3.07c-0.02,0.05-0.02,0.11-0.01,0.17c0.02,0.04,0.03,0.09,0.03,0.13
		c0.02-0.03,0.05-0.05,0.07-0.08c0.03-0.03,0.06-0.06,0.11-0.06c-0.02-0.04-0.06-0.08-0.11-0.1C26.66-3.03,26.63-3.05,26.6-3.07
		L26.6-3.07z M27.1,2.71C27.06,2.7,27.01,2.7,26.97,2.7c-0.03,0-0.06,0.01-0.09,0.02c-0.02,0.01-0.04,0.02-0.06,0.04
		c-0.01,0.01-0.03,0.02-0.05,0.03c0.01,0.01,0.03,0.02,0.05,0.02l0.08,0.01c0.03,0,0.06,0,0.09,0h0.07c0-0.02,0-0.03,0.01-0.05
		l0.02-0.04C27.09,2.73,27.09,2.72,27.1,2.71L27.1,2.71z M27,0.46c0.01,0.02,0.01,0.05,0.01,0.07c0,0.02,0.02,0.03,0.05,0.03
		c0-0.03-0.02-0.05-0.04-0.07c-0.02-0.02-0.04-0.04-0.06-0.05c-0.02-0.02-0.04-0.03-0.07-0.04c-0.02-0.01-0.04-0.02-0.05-0.04
		c-0.01,0.01-0.02,0.03-0.01,0.04c0.01,0.01,0.02,0.03,0.04,0.03c0.02,0.01,0.04,0.02,0.06,0.02C26.96,0.46,26.98,0.46,27,0.46
		L27,0.46z M27.06-3.94c-0.02,0-0.03-0.01-0.04-0.02l-0.05-0.05l-0.06-0.05c-0.02-0.01-0.04-0.02-0.06-0.02
		c0,0.07,0.01,0.13,0.02,0.19c0,0.04,0.01,0.08,0.04,0.11c0-0.04,0.02-0.07,0.05-0.1C26.99-3.91,27.03-3.93,27.06-3.94L27.06-3.94z
		 M27.18-1.88c-0.02,0.02-0.04,0.05-0.05,0.08c-0.01,0.03-0.03,0.06-0.05,0.08c0.03,0.01,0.07,0.03,0.11,0.05
		c0.03,0.02,0.07,0.03,0.11,0.02c-0.01-0.05-0.02-0.09-0.05-0.13C27.23-1.81,27.21-1.84,27.18-1.88L27.18-1.88z M27.42-0.57
		c-0.02,0-0.03,0-0.05,0.01l-0.05,0.02c-0.02,0.01-0.03,0.01-0.05,0.02c0.03,0.03,0.07,0.05,0.11,0.07c0.03,0,0.05,0.02,0.05,0.05
		c0,0,0,0,0,0l-0.07,0.07c-0.03,0.02-0.05,0.05-0.05,0.09c0.03,0,0.06,0,0.09,0.01l0.08,0.03c0.01-0.04,0.01-0.08,0.01-0.13
		c0-0.04-0.01-0.08-0.02-0.12c-0.01-0.03-0.02-0.06-0.03-0.09C27.44-0.54,27.43-0.56,27.42-0.57z M27.61-0.08l-0.05-0.01
		c-0.02,0-0.03-0.01-0.05-0.01c-0.02,0-0.04,0-0.06-0.01c-0.02,0.03-0.04,0.06-0.06,0.09c-0.01,0.03-0.03,0.06-0.05,0.09
		c0.01,0.01,0.02,0.02,0.04,0.02l0.05,0.02l0.06,0.01l-0.01-0.13c0.03-0.01,0.06-0.02,0.09-0.04C27.59-0.06,27.6-0.07,27.61-0.08
		L27.61-0.08z M27.45,3.5l0.07,0.13l0.08-0.05l-0.07-0.13L27.45,3.5z M27.74-2.53l-0.11,0.02v-0.06l0.11-0.02L27.74-2.53z"/>
</g>
<g class="st1">
	<path class="st2" d="M16.48,22.67c0,2.08-0.59,3.71-1.75,4.86c-1.17,1.16-3,1.74-5.49,1.74c-2.51,0-4.34-0.55-5.5-1.64
		S2,24.96,2,22.92v-1.66c0-0.68,0.15-1.28,0.45-1.8c0.3-0.52,0.63-1,0.99-1.44c0.36-0.44,0.69-0.86,0.99-1.28
		c0.3-0.41,0.45-0.85,0.45-1.29v-0.45c0-0.49-0.25-0.73-0.73-0.73H2.19v-3.25h2.46c0.83,0,1.51,0.08,2.04,0.24
		c0.53,0.16,0.96,0.39,1.28,0.69c0.32,0.3,0.54,0.68,0.67,1.13c0.13,0.46,0.19,0.98,0.19,1.58v0.8c0,0.62-0.14,1.16-0.41,1.63
		C8.14,17.55,7.83,18,7.49,18.44c-0.34,0.44-0.65,0.88-0.93,1.32c-0.28,0.45-0.41,0.95-0.41,1.5v1.69c0,1.06,0.26,1.84,0.78,2.33
		c0.52,0.49,1.29,0.73,2.31,0.73s1.79-0.27,2.31-0.8c0.52-0.53,0.78-1.37,0.78-2.52v-3.32c0-0.68-0.11-1.17-0.34-1.47
		c-0.22-0.3-0.58-0.45-1.07-0.45h-0.48l-0.64-1.53l3.38-4.91h4.34l-3.6,4.63c0.85,0.28,1.49,0.77,1.91,1.47
		c0.43,0.7,0.64,1.49,0.64,2.36V22.67z"/>
	<path class="st2" d="M3.5,8.79V5.66h10.81V2.63h3.7v6.16H3.5z"/>
	<path class="st2" d="M35.5,11.92l2.2,7.88c0.08,0.38,0.18,0.77,0.27,1.16c0.1,0.39,0.18,0.82,0.26,1.29
		c0.07,0.47,0.14,0.98,0.21,1.55c0.06,0.56,0.13,1.2,0.19,1.9h0.1c0.02-1.42,0.08-2.61,0.18-3.56c0.1-0.95,0.2-1.73,0.3-2.34
		l1.4-8.77h4.05l-3.03,17.86h-4.56l-2.36-8.17c-0.26-0.89-0.47-1.82-0.65-2.79c-0.18-0.97-0.32-1.93-0.43-2.89h-0.1
		c-0.11,0.96-0.25,1.92-0.43,2.89c-0.18,0.97-0.4,1.9-0.65,2.79l-2.36,8.17h-4.56l-3.03-17.86h4.05l1.4,8.77
		c0.11,0.62,0.21,1.4,0.3,2.34c0.1,0.95,0.15,2.13,0.18,3.56h0.1c0.06-0.7,0.13-1.33,0.19-1.9c0.06-0.56,0.13-1.08,0.21-1.55
		c0.07-0.47,0.15-0.9,0.24-1.29c0.08-0.39,0.18-0.78,0.29-1.16l2.2-7.88H35.5z"/>
	<path class="st2" d="M52.12,28.89l-1.6-6.32c-0.11-0.49-0.41-0.73-0.93-0.73h-1.18v-3.32h2.33c0.83,0,1.52,0.15,2.06,0.46
		c0.54,0.31,0.93,0.93,1.16,1.87l1.18,4.72h0.35c0.47-0.06,0.92-0.24,1.36-0.54c0.44-0.3,0.82-0.71,1.16-1.24
		c0.34-0.53,0.61-1.16,0.81-1.88c0.2-0.72,0.3-1.55,0.3-2.49c0-1.91-0.41-3.3-1.23-4.16c-0.82-0.86-1.93-1.29-3.33-1.29
		c-1.02,0-2.06,0.19-3.13,0.56c-1.06,0.37-2.06,0.96-3,1.77l-1.28-2.97c0.89-0.81,1.98-1.46,3.27-1.95
		c1.29-0.49,2.74-0.73,4.35-0.73c2.74,0,4.84,0.78,6.3,2.33c1.46,1.55,2.19,3.71,2.19,6.48c0,1.32-0.21,2.55-0.62,3.68
		c-0.41,1.14-0.98,2.14-1.69,3c-0.71,0.86-1.54,1.54-2.49,2.03c-0.95,0.49-1.94,0.73-2.98,0.73H52.12z"/>
	<path class="st2" d="M73.52,25.95c1.11,0,1.96-0.16,2.57-0.48C76.7,25.16,77,24.67,77,24.01c0-0.38-0.11-0.71-0.33-0.99
		c-0.22-0.28-0.52-0.52-0.89-0.72c-0.37-0.2-0.79-0.38-1.24-0.54c-0.46-0.16-0.91-0.31-1.36-0.46c-0.79-0.26-1.54-0.54-2.25-0.85
		c-0.71-0.31-1.33-0.69-1.87-1.13c-0.53-0.45-0.96-0.97-1.28-1.58c-0.32-0.61-0.48-1.33-0.48-2.18c0-0.7,0.16-1.35,0.49-1.95
		c0.33-0.6,0.79-1.12,1.39-1.56c0.6-0.45,1.3-0.79,2.12-1.04c0.82-0.24,1.72-0.37,2.7-0.37c1.36,0,2.56,0.15,3.59,0.45
		c1.03,0.3,1.99,0.68,2.89,1.15l-1.08,2.93c-0.83-0.45-1.66-0.76-2.5-0.94c-0.84-0.18-1.74-0.27-2.7-0.27
		c-0.81,0-1.49,0.12-2.04,0.37c-0.55,0.25-0.83,0.64-0.83,1.2c0,0.62,0.35,1.1,1.05,1.45c0.7,0.35,1.62,0.72,2.74,1.1
		c0.89,0.3,1.7,0.62,2.42,0.96c0.72,0.34,1.34,0.74,1.87,1.2c0.52,0.46,0.92,1,1.2,1.63c0.28,0.63,0.41,1.37,0.41,2.22
		c0,0.77-0.15,1.46-0.45,2.09c-0.3,0.63-0.74,1.18-1.34,1.64c-0.6,0.47-1.34,0.83-2.23,1.08c-0.89,0.26-1.95,0.38-3.16,0.38
		c-1.28,0-2.46-0.13-3.56-0.4c-1.1-0.27-2.07-0.64-2.92-1.13l0.99-3.16c0.79,0.43,1.62,0.76,2.49,1
		C71.72,25.83,72.61,25.95,73.52,25.95z"/>
	<path class="st2" d="M96.78,28.89v-7.82h-3.89c-1.19,0-2.14,0.18-2.86,0.53c-0.71,0.35-1.07,0.99-1.07,1.93
		c0,0.77,0.24,1.37,0.73,1.8c0.49,0.44,1.1,0.65,1.82,0.65c0.38,0,0.78-0.04,1.2-0.11c0.41-0.07,0.83-0.22,1.26-0.43l0.67,3.03
		c-0.55,0.25-1.12,0.44-1.71,0.54c-0.59,0.11-1.21,0.16-1.87,0.16c-0.87,0-1.68-0.12-2.42-0.35c-0.75-0.23-1.39-0.58-1.95-1.05
		c-0.55-0.47-0.99-1.05-1.31-1.76c-0.32-0.7-0.48-1.52-0.48-2.46c0-1.98,0.69-3.42,2.06-4.32c1.37-0.9,3.45-1.36,6.24-1.36h3.57
		v-0.61c0-1.02-0.29-1.85-0.88-2.49c-0.59-0.64-1.5-0.96-2.76-0.96c-1.32,0-2.47,0.19-3.46,0.57c-0.99,0.38-1.91,0.88-2.76,1.5
		l-1.31-2.87c0.83-0.62,1.91-1.17,3.24-1.66c1.33-0.49,2.82-0.73,4.48-0.73c1.15,0,2.19,0.16,3.11,0.48
		c0.92,0.32,1.71,0.77,2.36,1.34c0.65,0.57,1.15,1.27,1.5,2.09c0.35,0.82,0.53,1.73,0.53,2.73v11.61H96.78z"/>
	<path class="st2" d="M109.89,28.89l-5.39-17.86h4.08l4.37,14.55h0.35c0.51,0,1-0.15,1.47-0.45c0.47-0.3,0.89-0.72,1.26-1.26
		c0.37-0.54,0.66-1.2,0.88-1.98c0.21-0.78,0.32-1.63,0.32-2.57c0-1.93-0.31-3.31-0.94-4.13c-0.63-0.82-1.43-1.23-2.41-1.23
		c-0.66,0-1.37,0.14-2.14,0.41l-0.61-3.03c0.43-0.23,0.94-0.41,1.55-0.53c0.61-0.12,1.24-0.18,1.9-0.18c0.96,0,1.85,0.19,2.68,0.57
		c0.83,0.38,1.55,0.95,2.15,1.69c0.61,0.74,1.08,1.65,1.44,2.73c0.35,1.07,0.53,2.3,0.53,3.68c0,1.49-0.2,2.82-0.61,4
		c-0.4,1.18-0.97,2.19-1.71,3.01c-0.73,0.83-1.6,1.46-2.6,1.9c-1,0.44-2.09,0.65-3.29,0.65H109.89z"/>
	<path class="st2" d="M138,11.92l2.2,7.88c0.09,0.38,0.18,0.77,0.27,1.16c0.1,0.39,0.18,0.82,0.25,1.29
		c0.07,0.47,0.14,0.98,0.21,1.55c0.06,0.56,0.13,1.2,0.19,1.9h0.1c0.02-1.42,0.08-2.61,0.18-3.56c0.1-0.95,0.2-1.73,0.3-2.34
		l1.4-8.77h4.05l-3.03,17.86h-4.56l-2.36-8.17c-0.26-0.89-0.47-1.82-0.65-2.79c-0.18-0.97-0.32-1.93-0.43-2.89h-0.1
		c-0.11,0.96-0.25,1.92-0.43,2.89c-0.18,0.97-0.4,1.9-0.65,2.79l-2.36,8.17h-4.56l-3.03-17.86h4.05l1.4,8.77
		c0.11,0.62,0.21,1.4,0.3,2.34c0.1,0.95,0.15,2.13,0.18,3.56h0.1c0.06-0.7,0.13-1.33,0.19-1.9c0.06-0.56,0.13-1.08,0.21-1.55
		c0.07-0.47,0.15-0.9,0.24-1.29c0.09-0.39,0.18-0.78,0.29-1.16l2.2-7.88H138z"/>
	<path class="st2" d="M143.71,34.79c0-0.51-0.26-0.77-0.77-0.77h-1.21v-3.06h2.68c1.04,0,1.81,0.22,2.31,0.67
		c0.5,0.45,0.75,1.19,0.75,2.23v3.99h-3.76V34.79z"/>
	<path class="st2" d="M156.53,28.89l-5.39-17.86h4.08l4.37,14.55h0.35c0.51,0,1-0.15,1.47-0.45c0.47-0.3,0.89-0.72,1.26-1.26
		c0.37-0.54,0.66-1.2,0.88-1.98c0.21-0.78,0.32-1.63,0.32-2.57c0-1.93-0.31-3.31-0.94-4.13c-0.63-0.82-1.43-1.23-2.41-1.23
		c-0.66,0-1.37,0.14-2.14,0.41l-0.61-3.03c0.42-0.23,0.94-0.41,1.55-0.53c0.61-0.12,1.24-0.18,1.9-0.18c0.96,0,1.85,0.19,2.68,0.57
		c0.83,0.38,1.55,0.95,2.15,1.69c0.61,0.74,1.08,1.65,1.44,2.73c0.35,1.07,0.53,2.3,0.53,3.68c0,1.49-0.2,2.82-0.61,4
		c-0.4,1.18-0.97,2.19-1.71,3.01c-0.73,0.83-1.6,1.46-2.6,1.9c-1,0.44-2.09,0.65-3.29,0.65H156.53z"/>
</g>
</svg>
