<svg xmlns="http://www.w3.org/2000/svg" width="267" height="46.552" viewBox="0 0 267 46.552">
  <g id="logo" transform="translate(-1010.804 -456.843)">
    <path id="Path_145" data-name="Path 145" d="M1015.128,605.418a10.586,10.586,0,0,1-4.324-8.431h11.4q.241,2.948,2.609,2.947a2.558,2.558,0,0,0,1.474-.411,1.439,1.439,0,0,0,.6-1.28,2.223,2.223,0,0,0-1.3-1.957,26.11,26.11,0,0,0-4.058-1.715,43.671,43.671,0,0,1-5.435-2.271,10.519,10.519,0,0,1-3.7-3.237,8.82,8.82,0,0,1-1.5-5.459,9.348,9.348,0,0,1,1.715-5.677,10.593,10.593,0,0,1,4.687-3.551,17.633,17.633,0,0,1,6.691-1.208q6.28,0,9.977,2.9a10.3,10.3,0,0,1,3.889,8.165h-11.547a2.87,2.87,0,0,0-.725-2.077,2.33,2.33,0,0,0-1.643-.628,1.464,1.464,0,0,0-1.111.459,1.789,1.789,0,0,0-.435,1.28,2.193,2.193,0,0,0,1.28,1.908,29.187,29.187,0,0,0,4.083,1.812,46.418,46.418,0,0,1,5.339,2.319,11.324,11.324,0,0,1,3.648,3.092,7.846,7.846,0,0,1,1.546,4.976,10.142,10.142,0,0,1-6.039,9.518,16.174,16.174,0,0,1-7.006,1.4,16.87,16.87,0,0,1-10.122-2.875" transform="translate(0 -104.898)" fill="#143496"/>
    <path id="Path_146" data-name="Path 146" d="M1350.557,596.681a10.673,10.673,0,0,1-4.421,4.179,14.963,14.963,0,0,1-7.078,1.546h-4.252v10.871h-10.726V579.071h14.977q6.28,0,9.639,3.189a11.238,11.238,0,0,1,3.358,8.551,11.667,11.667,0,0,1-1.5,5.87m-9.373-5.87q0-3.14-3.333-3.14h-3.044v6.281h3.044q3.334,0,3.333-3.14" transform="translate(-282.501 -110.221)" fill="#143496"/>
    <path id="Path_147" data-name="Path 147" d="M1637.27,606.021a16.986,16.986,0,0,1-6.4-6.281,18.423,18.423,0,0,1,0-18.069,16.813,16.813,0,0,1,6.4-6.256,18.568,18.568,0,0,1,17.707,0,16.7,16.7,0,0,1,6.353,6.256,18.588,18.588,0,0,1,0,18.069,16.82,16.82,0,0,1-6.377,6.281,18.347,18.347,0,0,1-17.683,0m13.794-9.784a9.744,9.744,0,0,0,0-11.112,7,7,0,0,0-9.9,0,9.743,9.743,0,0,0,0,11.112,7,7,0,0,0,9.9,0" transform="translate(-557.015 -104.897)" fill="#143496"/>
    <path id="Path_148" data-name="Path 148" d="M2030.081,579.07v8.5H2021v25.7h-10.726v-25.7h-8.986v-8.5Z" transform="translate(-893.178 -110.22)" fill="#143496"/>
    <path id="Path_149" data-name="Path 149" d="M2329.715,605.16h10.339v8.117h-21.065V579.07h10.726Z" transform="translate(-1179.671 -110.22)" fill="#143496"/>
    <path id="Path_150" data-name="Path 150" d="M3120.494,579.07v34.206h-10.726V599.942h-10.195v13.335h-10.726V579.07h10.726v12.32h10.195V579.07Z" transform="translate(-1873.9 -110.22)" fill="#143496"/>
    <path id="Path_151" data-name="Path 151" d="M3464.36,579.07v8.5h-9.083v25.7h-10.726v-25.7h-8.987v-8.5Z" transform="translate(-2186.556 -110.22)" fill="#143496"/>
    <path id="Path_152" data-name="Path 152" d="M2457.045,463.577a6.734,6.734,0,1,1-6.734-6.734,6.734,6.734,0,0,1,6.734,6.734" transform="translate(-1292.02 0)" fill="#143496"/>
    <path id="Path_153" data-name="Path 153" d="M2498.385,509.973a1.679,1.679,0,1,1-1.679-1.679,1.679,1.679,0,0,1,1.679,1.679" transform="translate(-1338.415 -46.397)" fill="#e1d732"/>
    <path id="Path_154" data-name="Path 154" d="M2877.655,929.309q.767,0,1.5-.045h-2.969c.481.029.97.045,1.47.045" transform="translate(-1682.129 -426.011)" fill="#143496"/>
    <path id="Path_155" data-name="Path 155" d="M2730.816,590.41V598h8.551a7.156,7.156,0,0,1-5.991,3q-3.913,0-5.8-1.981t-1.884-5.991a8.236,8.236,0,0,1,1.691-5.484,5.912,5.912,0,0,1,4.783-2.005,6.448,6.448,0,0,1,2.8.556,4.156,4.156,0,0,1,1.787,1.57h11.306a12.851,12.851,0,0,0-5-8.793q-4.228-3.236-10.943-3.237a18.44,18.44,0,0,0-9.18,2.2,14.981,14.981,0,0,0-6.015,6.16,18.258,18.258,0,0,0-2.022,7.115l18.817,19.267a16.1,16.1,0,0,0,8.4-2.684,20.589,20.589,0,0,0,6.136-6.547V590.41Z" transform="translate(-1536.691 -107.114)" fill="#143496"/>
    <path id="Path_156" data-name="Path 156" d="M2529.764,552.451a18.977,18.977,0,0,1-2.1-9.035q0-.981.079-1.92l-20.39-20.877,11.418,40.145h24.815a17.969,17.969,0,0,1-7.782-2.153,14.925,14.925,0,0,1-6.039-6.16" transform="translate(-1349.53 -57.511)" fill="#e1d732"/>
    <path id="Path_157" data-name="Path 157" d="M2906.415,929.262h0Z" transform="translate(-1709.385 -426.009)" fill="#143496"/>
    <path id="Path_158" data-name="Path 158" d="M2714.1,735.054a18.981,18.981,0,0,0,2.1,9.035,14.93,14.93,0,0,0,6.04,6.16,17.97,17.97,0,0,0,7.782,2.153h2.973l-18.817-19.267q-.079.939-.079,1.92" transform="translate(-1535.963 -249.149)" fill="#fff"/>
  </g>
</svg>