<svg xmlns="http://www.w3.org/2000/svg" xmlns:xlink="http://www.w3.org/1999/xlink" width="262.86" height="68.424" viewBox="0 0 262.86 68.424">
  <defs>
    <filter id="ข่าวบันเทิง_ดารา" x="1.82" y="0" width="261.04" height="36.048" filterUnits="userSpaceOnUse">
      <feOffset dy="1" input="SourceAlpha"/>
      <feGaussianBlur result="blur"/>
      <feFlood/>
      <feComposite operator="in" in2="blur"/>
      <feComposite in="SourceGraphic"/>
    </filter>
  </defs>
  <g id="Group_5525" data-name="Group 5525" transform="translate(-10388 1055.424)">
    <g transform="matrix(1, 0, 0, 1, 10388, -1055.42)" filter="url(#ข่าวบันเทิง_ดารา)">
      <path id="ข่าวบันเทิง_ดารา-2" data-name="ข่าวบันเทิง ดารา" d="M1.82,0V-33.8H14.508a17.2,17.2,0,0,1,7.514,1.534,12.2,12.2,0,0,1,4.992,4.212,10.724,10.724,0,0,1,1.794,6.11A12.031,12.031,0,0,1,27.9-17a11.564,11.564,0,0,1-2.366,3.484A16.837,16.837,0,0,1,22.308-11Q20.54-9.932,18.746-8.97A32.864,32.864,0,0,0,15.5-6.994,9.029,9.029,0,0,0,13.13-4.628a5.73,5.73,0,0,0-.91,3.276V0Zm10.4-15.7q.78-.52,1.508-.936t1.378-.806q.65-.39,1.222-.78a5.959,5.959,0,0,0,.988-.832,3.369,3.369,0,0,0,.65-.988A3.214,3.214,0,0,0,18.2-21.32a2.7,2.7,0,0,0-.858-2.054,3.319,3.319,0,0,0-2.366-.806H12.22ZM30.992,0V-21.112a14.262,14.262,0,0,1,1.664-7.046,11.568,11.568,0,0,1,4.68-4.628,14.483,14.483,0,0,1,7.02-1.638A14.445,14.445,0,0,1,51.4-32.786a11.611,11.611,0,0,1,4.654,4.628,14.262,14.262,0,0,1,1.664,7.046V0H47.476V-.52a6.024,6.024,0,0,0-1.664-4.5,6.24,6.24,0,0,0-4.576-1.638h-4v-9.2h4a10.353,10.353,0,0,1,7.956,3.12Q52.1-9.62,52.1-4.212l-4.628-1.04V-21.164a3.583,3.583,0,0,0-.39-1.716,2.89,2.89,0,0,0-1.092-1.144,3.153,3.153,0,0,0-1.638-.416,3.153,3.153,0,0,0-1.638.416,2.89,2.89,0,0,0-1.092,1.144,3.583,3.583,0,0,0-.39,1.716V0ZM61.1,0V-33.8H73.06a20.444,20.444,0,0,1,7.852,1.378,11.736,11.736,0,0,1,5.148,3.874,9.621,9.621,0,0,1,1.82,5.824,11.436,11.436,0,0,1-.416,3.2,10.505,10.505,0,0,1-1.118,2.574A10.535,10.535,0,0,1,84.708-14.9,14.211,14.211,0,0,1,82.68-13.26a11.814,11.814,0,0,1,3.64,2.574,10.677,10.677,0,0,1,2.288,3.692,13.468,13.468,0,0,1,.78,4.706V0H78.468V-3.068a4.049,4.049,0,0,0-.416-1.924,3.006,3.006,0,0,0-1.2-1.222,3.739,3.739,0,0,0-1.872-.442,3.776,3.776,0,0,0-1.846.442,2.965,2.965,0,0,0-1.222,1.222A4.049,4.049,0,0,0,71.5-3.068V0ZM71.5-24.18v9.152a10.377,10.377,0,0,1,1.352-1.066q.676-.442,1.3-.858t1.2-.832a7.272,7.272,0,0,0,1.014-.884,3.279,3.279,0,0,0,.676-1.066,3.764,3.764,0,0,0,.234-1.378,2.743,2.743,0,0,0-1.014-2.236,4.53,4.53,0,0,0-2.938-.832ZM102.492,0h-10.5V-33.8h10.5Zm15.964.624a15.79,15.79,0,0,1-6.89-1.43,11.16,11.16,0,0,1-4.654-3.978,10.6,10.6,0,0,1-1.664-5.928h10.14a3.011,3.011,0,0,0,.338,1.456,2.3,2.3,0,0,0,.988.962,3.4,3.4,0,0,0,1.586.338,3.043,3.043,0,0,0,1.95-.6A1.778,1.778,0,0,0,121-9.984a1.64,1.64,0,0,0-.858-1.43,8.465,8.465,0,0,0-2.262-.936q-1.4-.39-3.068-.832a26.44,26.44,0,0,1-3.354-1.144,12.856,12.856,0,0,1-3.094-1.82,8.192,8.192,0,0,1-2.262-2.886,9.959,9.959,0,0,1-.858-4.368,10.1,10.1,0,0,1,1.56-5.46,11.558,11.558,0,0,1,4.368-4.03,13.343,13.343,0,0,1,6.5-1.534,15.522,15.522,0,0,1,6.812,1.4,10.963,10.963,0,0,1,4.55,3.926,10.5,10.5,0,0,1,1.638,5.85h-10.14a2.468,2.468,0,0,0-.754-1.9,2.972,2.972,0,0,0-2.106-.7,2.64,2.64,0,0,0-1.2.26,2.081,2.081,0,0,0-.806.676,1.614,1.614,0,0,0-.286.936,1.64,1.64,0,0,0,.858,1.43,8.465,8.465,0,0,0,2.262.936q1.4.39,3.068.858a29.727,29.727,0,0,1,3.354,1.17,12.4,12.4,0,0,1,3.094,1.846,8.39,8.39,0,0,1,2.262,2.938,10.27,10.27,0,0,1,.858,4.446,10.07,10.07,0,0,1-1.586,5.512,11.324,11.324,0,0,1-4.42,3.978A14.232,14.232,0,0,1,118.456.624ZM143.312,0l14.352-19.864a7.827,7.827,0,0,0,.884-1.534,3.542,3.542,0,0,0,.26-1.326,2.594,2.594,0,0,0-.39-1.4,2.911,2.911,0,0,0-1.014-.988,2.837,2.837,0,0,0-1.456-.364,3.129,3.129,0,0,0-1.508.364,2.867,2.867,0,0,0-1.066.962,2.56,2.56,0,0,0-.39,1.43,2.593,2.593,0,0,0,.286,1.222,3.6,3.6,0,0,0,.91,1.066l-5.564,7.7Q143-16.432,143-22.464a11.336,11.336,0,0,1,1.69-6.136,11.946,11.946,0,0,1,4.628-4.264,13.916,13.916,0,0,1,6.63-1.56,14.567,14.567,0,0,1,6.6,1.456,11.449,11.449,0,0,1,4.576,4,10.412,10.412,0,0,1,1.664,5.824,10.7,10.7,0,0,1-.338,2.7,11.965,11.965,0,0,1-1.144,2.756,37.36,37.36,0,0,1-2.21,3.432l-8.736,12.22L156-9.36h13.572V0Zm38.324-16.9a8.056,8.056,0,0,0,.572,3.068,7.615,7.615,0,0,0,1.612,2.47,7.2,7.2,0,0,0,2.418,1.638,7.722,7.722,0,0,0,2.99.572,7.722,7.722,0,0,0,2.99-.572,7.2,7.2,0,0,0,2.418-1.638,7.615,7.615,0,0,0,1.612-2.47,8.056,8.056,0,0,0,.572-3.068,8.056,8.056,0,0,0-.572-3.068,7.615,7.615,0,0,0-1.612-2.47,7.2,7.2,0,0,0-2.418-1.638,7.722,7.722,0,0,0-2.99-.572,7.722,7.722,0,0,0-2.99.572,7.2,7.2,0,0,0-2.418,1.638,7.615,7.615,0,0,0-1.612,2.47A8.056,8.056,0,0,0,181.636-16.9Zm-10.764,0a16.9,16.9,0,0,1,1.4-6.916,17.569,17.569,0,0,1,3.874-5.564,17.54,17.54,0,0,1,5.824-3.718,19.553,19.553,0,0,1,7.254-1.326,19.553,19.553,0,0,1,7.254,1.326,17.54,17.54,0,0,1,5.824,3.718,17.569,17.569,0,0,1,3.874,5.564,16.9,16.9,0,0,1,1.4,6.916,16.9,16.9,0,0,1-1.4,6.916,17.569,17.569,0,0,1-3.874,5.564A17.54,17.54,0,0,1,196.482-.7,19.553,19.553,0,0,1,189.228.624,19.553,19.553,0,0,1,181.974-.7,17.54,17.54,0,0,1,176.15-4.42a17.569,17.569,0,0,1-3.874-5.564A16.9,16.9,0,0,1,170.872-16.9ZM209.456,0l14.352-19.864a7.827,7.827,0,0,0,.884-1.534,3.542,3.542,0,0,0,.26-1.326,2.594,2.594,0,0,0-.39-1.4,2.911,2.911,0,0,0-1.014-.988,2.837,2.837,0,0,0-1.456-.364,3.129,3.129,0,0,0-1.508.364,2.866,2.866,0,0,0-1.066.962,2.559,2.559,0,0,0-.39,1.43,2.593,2.593,0,0,0,.286,1.222,3.6,3.6,0,0,0,.91,1.066l-5.564,7.7q-5.616-3.692-5.616-9.724a11.336,11.336,0,0,1,1.69-6.136,11.946,11.946,0,0,1,4.628-4.264,13.916,13.916,0,0,1,6.63-1.56,14.567,14.567,0,0,1,6.6,1.456,11.449,11.449,0,0,1,4.576,4,10.412,10.412,0,0,1,1.664,5.824,10.7,10.7,0,0,1-.338,2.7,11.965,11.965,0,0,1-1.144,2.756,37.36,37.36,0,0,1-2.21,3.432l-8.736,12.22-.364-7.332h13.572V0Zm43.316-25.48H262.86V0H252.772V-2.7a3.924,3.924,0,0,0-.832-2.574,7.18,7.18,0,0,0-2.184-1.742q-1.352-.728-2.964-1.43a30.373,30.373,0,0,1-3.25-1.664,13.179,13.179,0,0,1-2.99-2.418,10.974,10.974,0,0,1-2.184-3.692,15.907,15.907,0,0,1-.832-5.512V-33.8h10.5v11.544a4.739,4.739,0,0,0,.546,2.522,4.115,4.115,0,0,0,1.456,1.378q.91.52,2,1.014a11.32,11.32,0,0,1,2.184,1.326,8.054,8.054,0,0,1,2,2.392,14.1,14.1,0,0,1,1.456,4.186,34.072,34.072,0,0,1,.546,6.734l-5.46-7.748Z" transform="translate(0 34.42)" fill="#fff"/>
    </g>
    <path id="Rectangle_11872" data-name="Rectangle 11872" d="M0,0H183a15,15,0,0,1,15,15v0a15,15,0,0,1-15,15H0a0,0,0,0,1,0,0V0A0,0,0,0,1,0,0Z" transform="translate(10388 -1017)" fill="#331362"/>
    <path id="ข่าวบันเทิง_ดารา-3" data-name="ข่าวบันเทิง ดารา" d="M1.5,0V-13H5.3a5.641,5.641,0,0,1,2.45.5,3.957,3.957,0,0,1,1.64,1.39,3.7,3.7,0,0,1,.59,2.09,4.328,4.328,0,0,1-.37,1.9,3.638,3.638,0,0,1-.99,1.26,6.881,6.881,0,0,1-1.35.85q-.73.35-1.46.69a9.716,9.716,0,0,0-1.35.76,3.17,3.17,0,0,0-.99,1.07A3.258,3.258,0,0,0,3.1-.86V0ZM3.1-4.3a5.484,5.484,0,0,1,1.05-.79q.57-.33,1.15-.6t1.13-.55a5.494,5.494,0,0,0,.98-.63,2.558,2.558,0,0,0,.68-.85,2.707,2.707,0,0,0,.25-1.22,2.329,2.329,0,0,0-.81-1.87,3.234,3.234,0,0,0-2.17-.69H3.1ZM11.9,0V-8.92a4.518,4.518,0,0,1,.53-2.22,3.794,3.794,0,0,1,1.49-1.5,4.41,4.41,0,0,1,2.2-.54,4.4,4.4,0,0,1,2.21.54,3.812,3.812,0,0,1,1.48,1.5,4.518,4.518,0,0,1,.53,2.22V0h-1.6V-.42A4.319,4.319,0,0,0,17.55-3.6,4.649,4.649,0,0,0,14.1-4.8H12.9V-6.3h.8a7.473,7.473,0,0,1,3.99.93,3.918,3.918,0,0,1,1.85,2.53h-.8V-8.92a2.791,2.791,0,0,0-.34-1.4,2.544,2.544,0,0,0-.93-.95,2.6,2.6,0,0,0-1.35-.35,2.649,2.649,0,0,0-1.36.35,2.448,2.448,0,0,0-.93.95,2.859,2.859,0,0,0-.33,1.4V0ZM23.16,0V-13h3.8a5.641,5.641,0,0,1,2.45.5,3.957,3.957,0,0,1,1.64,1.39,3.7,3.7,0,0,1,.59,2.09,4.328,4.328,0,0,1-.21,1.41,3.386,3.386,0,0,1-.58,1.06,4.492,4.492,0,0,1-.84.79,8.825,8.825,0,0,1-.99.62,3.887,3.887,0,0,1,1.61.82,3.986,3.986,0,0,1,1.04,1.41,4.545,4.545,0,0,1,.37,1.87V0h-1.6V-.94a3.225,3.225,0,0,0-.36-1.55,2.66,2.66,0,0,0-1-1.05,2.844,2.844,0,0,0-1.48-.38,2.844,2.844,0,0,0-1.48.38,2.66,2.66,0,0,0-1,1.05,3.225,3.225,0,0,0-.36,1.55V0Zm1.6-11.5v7.14a5.62,5.62,0,0,1,1.05-.76q.57-.32,1.15-.59t1.13-.55a5.18,5.18,0,0,0,.98-.64,2.7,2.7,0,0,0,.68-.85A2.594,2.594,0,0,0,30-8.94a2.329,2.329,0,0,0-.81-1.87,3.234,3.234,0,0,0-2.17-.69ZM34.22,0V-8.92a4.518,4.518,0,0,1,.53-2.22,3.794,3.794,0,0,1,1.49-1.5,4.41,4.41,0,0,1,2.2-.54,4.4,4.4,0,0,1,2.21.54,3.812,3.812,0,0,1,1.48,1.5,4.518,4.518,0,0,1,.53,2.22V0h-1.6V-.42A4.319,4.319,0,0,0,39.87-3.6a4.649,4.649,0,0,0-3.45-1.2h-1.2V-6.3h.8a7.473,7.473,0,0,1,3.99.93,3.918,3.918,0,0,1,1.85,2.53h-.8V-8.92a2.791,2.791,0,0,0-.34-1.4,2.544,2.544,0,0,0-.93-.95,2.6,2.6,0,0,0-1.35-.35,2.649,2.649,0,0,0-1.36.35,2.448,2.448,0,0,0-.93.95,2.859,2.859,0,0,0-.33,1.4V0ZM51.88,0h-6.4V-13h1.6V-1.5h4.8Zm3.58,0,3.6-13h1.6L57.16,0ZM51.62-9.16a10.448,10.448,0,0,1,.14-1.68q.14-.86.48-2.16h1.58q-.36,1.34-.5,2.18a10.084,10.084,0,0,0-.14,1.66,3.866,3.866,0,0,0,1.03,2.89,3.981,3.981,0,0,0,2.91,1.01h.48v1.5h-.48a6.365,6.365,0,0,1-2.97-.64,4.38,4.38,0,0,1-1.88-1.85A6.072,6.072,0,0,1,51.62-9.16ZM62.56,0V-13h.86a7.018,7.018,0,0,1,2.81.54,5.537,5.537,0,0,1,2.07,1.51,4.823,4.823,0,0,1,1.06,2.31H68.32a5.03,5.03,0,0,1,1.07-2.31,5.448,5.448,0,0,1,2.06-1.51A7.018,7.018,0,0,1,74.26-13h.86V0h-1.6V-11.64l.46.24h-.52a3.887,3.887,0,0,0-2.02.51,3.42,3.42,0,0,0-1.33,1.45,4.862,4.862,0,0,0-.47,2.2V-4h-1.6V-7.24a4.862,4.862,0,0,0-.47-2.2,3.42,3.42,0,0,0-1.33-1.45,3.887,3.887,0,0,0-2.02-.51H63.7l.46-.24V0ZM78.12,0V-13h3.8a5.641,5.641,0,0,1,2.45.5,3.957,3.957,0,0,1,1.64,1.39,3.7,3.7,0,0,1,.59,2.09,4.328,4.328,0,0,1-.37,1.9,3.638,3.638,0,0,1-.99,1.26,6.881,6.881,0,0,1-1.35.85q-.73.35-1.46.69a9.716,9.716,0,0,0-1.35.76,3.17,3.17,0,0,0-.99,1.07,3.258,3.258,0,0,0-.37,1.63V0Zm1.6-4.3a5.484,5.484,0,0,1,1.05-.79q.57-.33,1.15-.6t1.13-.55a5.494,5.494,0,0,0,.98-.63,2.558,2.558,0,0,0,.68-.85,2.707,2.707,0,0,0,.25-1.22,2.329,2.329,0,0,0-.81-1.87,3.234,3.234,0,0,0-2.17-.69H79.72ZM90.3,0H88.7V-13h1.6Zm14.08-5.44h1.66a6.326,6.326,0,0,1-1.18,2.87A6.812,6.812,0,0,1,102.5-.56a6.648,6.648,0,0,1-3.12.74,6.724,6.724,0,0,1-2.62-.51,6.7,6.7,0,0,1-2.15-1.43,6.674,6.674,0,0,1-1.45-2.13,6.539,6.539,0,0,1-.52-2.61,6.539,6.539,0,0,1,.52-2.61,6.674,6.674,0,0,1,1.45-2.13,6.7,6.7,0,0,1,2.15-1.43,6.724,6.724,0,0,1,2.62-.51,6.669,6.669,0,0,1,2.97.67,6.751,6.751,0,0,1,2.31,1.83,6.419,6.419,0,0,1,1.28,2.64h-1.68a5.081,5.081,0,0,0-1.03-1.88,5.138,5.138,0,0,0-1.7-1.29,4.949,4.949,0,0,0-2.15-.47,4.911,4.911,0,0,0-1.98.4,5.121,5.121,0,0,0-1.62,1.11,5.26,5.26,0,0,0-1.1,1.65,5.1,5.1,0,0,0-.4,2.02,5.1,5.1,0,0,0,.4,2.02,5.26,5.26,0,0,0,1.1,1.65A5.121,5.121,0,0,0,97.4-1.72a4.911,4.911,0,0,0,1.98.4,4.873,4.873,0,0,0,2.28-.54,5.227,5.227,0,0,0,1.76-1.48A5.115,5.115,0,0,0,104.38-5.44Zm20.32.52a7.062,7.062,0,0,1-1.23,2.69,6.042,6.042,0,0,1-2.12,1.78,6.022,6.022,0,0,1-2.75.63,6.724,6.724,0,0,1-2.62-.51,6.7,6.7,0,0,1-2.15-1.43,6.674,6.674,0,0,1-1.45-2.13,6.539,6.539,0,0,1-.52-2.61,6.539,6.539,0,0,1,.52-2.61,6.674,6.674,0,0,1,1.45-2.13,6.7,6.7,0,0,1,2.15-1.43,6.724,6.724,0,0,1,2.62-.51,6.775,6.775,0,0,1,2.96.65,6.663,6.663,0,0,1,2.31,1.81,6.355,6.355,0,0,1,1.29,2.68h-1.7a4.822,4.822,0,0,0-1.05-1.91,5.329,5.329,0,0,0-1.71-1.27,4.881,4.881,0,0,0-2.1-.46,4.911,4.911,0,0,0-1.98.4A5.121,5.121,0,0,0,115-10.17a5.26,5.26,0,0,0-1.1,1.65,5.1,5.1,0,0,0-.4,2.02,5.1,5.1,0,0,0,.4,2.02A5.26,5.26,0,0,0,115-2.83a5.121,5.121,0,0,0,1.62,1.11,4.911,4.911,0,0,0,1.98.4,4.948,4.948,0,0,0,2.28-.53,5.169,5.169,0,0,0,1.76-1.46,5.043,5.043,0,0,0,.96-2.13h1.64V0h-1.52V-4.92ZM127.66,0V-8.92a4.518,4.518,0,0,1,.53-2.22,3.794,3.794,0,0,1,1.49-1.5,4.41,4.41,0,0,1,2.2-.54,4.4,4.4,0,0,1,2.21.54,3.812,3.812,0,0,1,1.48,1.5,4.518,4.518,0,0,1,.53,2.22V0h-1.6V-.42a4.319,4.319,0,0,0-1.19-3.18,4.649,4.649,0,0,0-3.45-1.2h-1.2V-6.3h.8a7.473,7.473,0,0,1,3.99.93,3.918,3.918,0,0,1,1.85,2.53h-.8V-8.92a2.791,2.791,0,0,0-.34-1.4,2.544,2.544,0,0,0-.93-.95,2.6,2.6,0,0,0-1.35-.35,2.649,2.649,0,0,0-1.36.35,2.448,2.448,0,0,0-.93.95,2.859,2.859,0,0,0-.33,1.4V0Zm11.26,0V-13h.86a7.018,7.018,0,0,1,2.81.54,5.537,5.537,0,0,1,2.07,1.51,4.823,4.823,0,0,1,1.06,2.31h-1.04a5.03,5.03,0,0,1,1.07-2.31,5.448,5.448,0,0,1,2.06-1.51,7.018,7.018,0,0,1,2.81-.54h.86V0h-1.6V-11.64l.46.24h-.52a3.887,3.887,0,0,0-2.02.51,3.42,3.42,0,0,0-1.33,1.45,4.861,4.861,0,0,0-.47,2.2V-4h-1.6V-7.24a4.861,4.861,0,0,0-.47-2.2,3.42,3.42,0,0,0-1.33-1.45,3.887,3.887,0,0,0-2.02-.51h-.52l.46-.24V0Zm15.56,0V-13h6.86v1.5h-6l.74-.7v8.52l-1.16,1.94a6.307,6.307,0,0,1,.67-3,4.659,4.659,0,0,1,1.91-1.94,6.025,6.025,0,0,1,2.94-.68h.3v1.5h-.3a4.453,4.453,0,0,0-3.18,1.11,3.934,3.934,0,0,0-1.18,3.01V-.8l-1.06-.7h6.32V0Zm12.66.18a4.774,4.774,0,0,1-2.11-.47,3.807,3.807,0,0,1-1.55-1.35,3.84,3.84,0,0,1-.58-2.16h1.6a2.417,2.417,0,0,0,.34,1.28,2.393,2.393,0,0,0,.94.88,2.845,2.845,0,0,0,1.36.32,2.589,2.589,0,0,0,1.76-.59,1.931,1.931,0,0,0,.68-1.53,1.778,1.778,0,0,0-.34-1.12,2.846,2.846,0,0,0-.91-.75,9.41,9.41,0,0,0-1.25-.56q-.68-.25-1.36-.55a6.568,6.568,0,0,1-1.25-.72,3.139,3.139,0,0,1-.91-1.05,3.323,3.323,0,0,1-.34-1.59,3.03,3.03,0,0,1,.51-1.71,3.706,3.706,0,0,1,1.37-1.23,3.964,3.964,0,0,1,1.9-.46,4.266,4.266,0,0,1,2.04.47,3.5,3.5,0,0,1,1.38,1.3,3.667,3.667,0,0,1,.5,1.93h-1.6a2.08,2.08,0,0,0-.65-1.59,2.342,2.342,0,0,0-1.67-.61,2.32,2.32,0,0,0-1.07.25,2.037,2.037,0,0,0-.78.68,1.7,1.7,0,0,0-.29.97,1.662,1.662,0,0,0,.34,1.08,2.985,2.985,0,0,0,.91.73,9.412,9.412,0,0,0,1.25.56q.68.25,1.36.55a6,6,0,0,1,1.25.74,3.31,3.31,0,0,1,.91,1.08,3.384,3.384,0,0,1,.34,1.6,3.351,3.351,0,0,1-.53,1.86,3.681,3.681,0,0,1-1.45,1.29A4.551,4.551,0,0,1,167.14.18Z" transform="translate(10401 -995)" fill="#fff"/>
  </g>
</svg>
